<svg id="eZmJdaz3s5M1" xmlns="http://www.w3.org/2000/svg" xmlns:xlink="http://www.w3.org/1999/xlink" viewBox="0 0 2600 1192" shape-rendering="geometricPrecision" text-rendering="geometricPrecision"><g transform="matrix(.1 0 0-.1 0 1192)"><g id="eZmJdaz3s5M3" transform="translate(-285.15626-305.13174)"><path d="M17990,8479c-19-4-50-10-67-14-25-6-33-4-33,6c0,11-2,11-8,2-5-9-54-13-165-14-86-1-157-5-157-10s9-9,20-9s20-4,20-9c0-11-148-14-164-3-16,10-56,10-56,0c0-4-4-8-10-8-5,0-6,7-3,17c4,10,2,14-4,10s-63-7-127-8c-64,0-116-5-116-10c0-11-73-12-84-1-11,10-50,9-58-2-4-6-11-6-20,1-21,17-469,18-479,1-7-11-618-13-3516-12-1929,0-3521,3-3537,8-23,6-27,9-15,17c11,7,9,9-9,9-13,0-21-4-18-9c7-11-37-22-85-22-19,1-43,0-54,0s-32,1-47,4c-14,2-32,1-39-4-7-4-22-2-33,4-12,6-29,11-39,12-10,0-22,6-26,14-7,11-29,14-83,12-86-2-80-2-140,2-32,2-49-1-52-10-7-17-36-5-36,14c0,11-4,13-12,5-9-7-42-7-104,1-50,5-99,7-108,4-14-6-16-37-16-294c0-158,3-433,7-611l6-323l79,3l78,3v508c0,485,1,508,19,526c11,11,16,22,13,26-4,4-2,6,3,5c6-1,15-2,20-1c37,4,9114-1,9132-5c12-3,24-16,26-27c3-12,6-247,7-522c0-274,3-501,5-503c2-3,38-5,80-6l75-1v550c0,303,0,575,0,605c0,65-15,80-70,69Zm-9018-51c-7-7-12-8-12-2c0,14,12,26,19,19c2-3-1-11-7-17Zm77,13c8-5,9-11,3-15-14-8-43,4-36,15s15,11,33,0Z" transform="translate(0 22.49057)" fill="#fa2096"/><path d="M9120,8448c0-4,54-8,121-8c74,0,118,4,114,10-7,11-235,10-235-2Z"/><path d="M9455,8450c-4-6,7-10,25-10s29,4,25,10c-3,6-15,10-25,10s-22-4-25-10Z"/><path d="M9560,8450c-25-4,118-8,318-8c240-1,361,1,357,8-7,11-602,11-675,0Z"/><path d="M17440,8448c0-12,15-13,98-9c6,1,12,6,12,11c0,6-25,10-55,10-37,0-55-4-55-12Z"/><path d="M13638,8423c199-2,525-2,725,0c199,1,36,2-363,2s-562-1-362-2Z"/><path d="M14958,8423c89-2,235-2,325,0c89,1,16,3-163,3s-252-2-162-3Z"/></g><g id="eZmJdaz3s5M11" transform="translate(-288.569335 685.35)"><path d="M8511,4058c1-354,14-1007,20-1013c3-3,2148-6,4766-7l4760-3l7,605c4,333,4,613,1,623-7,15-18,17-89,15l-81-3v-527c0-289-3-529-7-533-3-4-33-9-65-12s-85-8-118-13c-33-4-65-4-71,1s-18,3-30-6c-10-8-34-15-51-15-27,0-33-4-34-22-1-21-2-21-6-3-8,32-23,42-34,22-7-12-15-15-26-8-12,6-22,3-35-13l-18-21-18,21c-18,21-19,21-30,3-12-19-72-28-72-11c0,5-105,9-232,10-128,1-272,3-320,5-49,2-88,0-88-5c0-8-73-11-81-3-9,8-6959,11-6959,3c0-11-77-10-84,0-2,4-31,7-63,7-32-1-68,2-80,6-14,5-26,3-33-7-15-17-36-18-46-2-5,7-3,8,7,3c12-8,12-6,0,9-8,9-17,13-20,8-10-15-150-16-161-1-3,4-43,13-88,19-62,8-87,8-97,0s-19-8-34,1c-15,10-25,10-43,2-39-19-57-23-63-13-4,6-15,10-26,10-10,0-19,4-19,10c0,5-6,7-13,4-7-2-21,4-31,14-13,15-18,43-21,123-6,173-7,888-1,898c4,5,4,16,0,24-4,11-25,15-90,16l-84,2l1-223Zm6401-925c-860-2-2264-2-3120,0-856,1-153,2,1563,2s2417-1,1557-2Zm2271,0c-13-2-33-2-45,0-13,2-3,4,22,4s35-2,23-4Z" fill="#fa2096"/></g><g id="eZmJdaz3s5M13" transform="translate(165.812503 38.78003)"><path d="M13895,6750c-139-28-310-133-379-233-102-148-111-319-26-486c48-95,166-186,299-232c68-24,77-23,26,2-43,21-32,19,80-11c74-20,161-55,115-46-14,2-41,7-60,10l-35,6l30-15c17-8,45-14,64-15c19,0,64-5,100-11c114-20,166-57,177-125c17-113-4-123-256-120-197,2-246,10-234,40c3,8-10,19-38,29-39,15-71,40-106,82-17,19-38,14-36-8c1-9-2-15-6-12-4,2-33-32-64-78-31-45-71-102-88-126-22-31-32-56-32-85-1-40,1-42,51-66c29-14,63-36,77-49c28-27,131-61,166-55c14,2,48-2,75-10l50-14-40-2-40-2l45-14c60-19,337-29,419-15c35,5,99,27,143,48c241,113,351,419,237,663-33,72-114,157-158,166-14,3-35,10-46,15l-20,10l20-6c14-5,17-3,9,5-12,12-175,71-187,67-4-1,15-11,43-22c27-11,50-23,50-28s-8-6-17-2c-10,4-47,16-83,26-298,84-347,103-380,149-24,34-25,61-3,107c28,60,62,73,189,73c133,0,213-13,235-39c19-23,73-52,117-62c27-6,35-3,52,19c11,14,29,44,40,66c11,23,40,69,65,104c50,71,55,100,23,138-59,68-274,159-400,169-44,4-57,2-43-4c16-8,12-10-22-10-24-1-43,4-43,9c0,12-96,12-155,0Zm320-20c3-6-1-7-9-4-18,7-21,14-7,14c6,0,13-4,16-10Zm150-730c13-6,15-9,5-9-8,0-22,4-30,9-18,12-2,12,25,0Zm35-834c0-2-7-7-16-10-8-3-12-2-9,4c6,10,25,14,25,6Zm-76-35c-18-11-58-22-90-25-53-5-55-4-24,5c19,6,53,17,75,24c58,19,74,18,39-4Z" fill="#404667"/><path d="M23940,6749c-21-6-22-7-5-9l20-1-20-9c-11-5-34-9-50-9-17-1-37-7-44-13-11-11-13-10-7,0s2,10-21,0c-15-7-30-15-33-18s-27-16-53-30c-65-34-157-131-198-210-33-64-34-67-34-191v-126l43-85c29-60,57-99,91-130c50-45,199-128,229-128c9,1-5,12-33,25-61,29-54,32,14,5c27-10,86-28,131-39c104-26,135-43,65-37-86,9-2-11,97-23c145-17,208-66,208-161c0-79-28-90-223-90-201,0-238,6-278,41-18,16-47,39-66,51-18,13-36,31-39,42-5,14-8,15-14,6-4-7-20-14-34-15-22-3-25-1-15,11c14,17,33,19,23,2-4-7-3-8,4-4c14,8,16,36,4,36-21,0-103-95-132-151-7-13-21-33-30-44-10-11-30-41-44-66-21-39-24-52-16-79c13-44,28-60,58-60c16,0,40-13,62-34c32-32,103-61,121-51c11,7,173-25,184-37c7-7-5-8-40-4-37,5-46,4-33-4c47-29,432-38,498-11c26,10,16,14-30,12-23-1-23,0-5,8c28,13,63,13,67,1c2-6,34,4,74,24c90,45,183,140,224,228c58,126,58,327-1,438-32,60-96,133-109,125-4-3-34,8-67,24-32,16-75,32-96,36-20,4-37,11-37,16s-7,6-15,3c-8-4-21-1-29,5-7,6-15,9-18,6-2-3-43,8-89,24s-113,37-148,46c-87,22-158,59-167,87-10,29-6,85,7,120c16,40,72,58,181,58c103,0,216-16,238-35c8-6,44-29,79-50l64-38l19,24c10,13,39,58,64,99s59,96,76,122c28,43,29,48,16,75-8,15-20,27-27,25-7-1-10,1-7,6c15,25-169,126-231,126-18,0-28,3-22,7c16,10-77,32-106,25-17-4-24-3-20,4c4,6-4,10-19,10-14,0-26-4-26-8c0-5-12-7-27-6-74,8-181,10-203,3Zm631-836c13-16,12-17-3-4-17,13-22,21-14,21c2,0,10-8,17-17Z" fill="#404667"/><path d="M8395,6676c-94-25-223-81-212-92c3-3,32,8,64,25c92,46,172,63,308,64c135,1,202-13,312-66c121-58,154-78,147-88-3-6-18-2-37,11-60,39-126,70-140,65-7-3-24-1-38,5-21,9-20,10,11,5l35-5-39,15c-22,9-42,11-45,6-4-5-34-3-71,4-36,7-119,15-185,18-66,2-106,2-90,0c26-5,21-7-33-19-35-7-70-10-79-7-11,4-14,2-9-5c4-7,2-12-6-12-29,0-201-95-248-137-101-90-205-258-230-367-14-64-15-268-1-329c6-26,25-80,43-120c97-220,280-387,508-464c80-26,351-26,430,1c59,19,141,63,152,79c3,6,14,12,23,13c37,5,182,154,246,251c84,129,118,244,119,397c0,112-17,188-64,292-59,127-165,272-189,257-5-3-7-2-4,4c12,19-96,101-188,142-117,53-165,63-305,67-92,2-151-1-185-10Zm523-124c12-8,22-16,22-18c0-5-82,35-90,43-10,10,45-10,68-25Zm-235-287c118-31,195-94,248-201c29-58,31-69,28-151-3-76-9-98-37-155-49-101-148-170-267-188l-60-9l65,3c36,2,74,7,85,11c15,5,16,4,5-3-63-40-282-42-357-3-24,12-43,26-43,31c0,6-6,10-14,10-23,0-116,107-142,164-64,139-47,257,52,376c34,40,131,106,175,118c53,16,198,14,262-3Zm317-950c0-2-10-10-22-16-21-11-22-11-9,4c13,16,31,23,31,12Zm-90-55c-77-59-254-96-409-86-87,6-203,35-225,57-15,14,4,11,67-11c87-31,185-42,270-30c75,11,181,41,229,66c15,8,28,11,28,7s5-2,12,5s21,12,33,12c19,0,18-2-5-20Z" fill="#404667"/><path d="M8473,5563c9-2,25-2,35,0c9,3,1,5-18,5s-27-2-17-5Z"/><path d="M12355,6686c-5-2-36-9-68-16-88-18-62-22,34-5c98,18,99,18,99,6c0-4-28-11-62-14-35-4-74-9-88-12-14-4-46-8-72-9-102-7-265-132-389-297-91-122-146-302-135-444c6-86,42-229,71-285c33-64,98-154,154-213c63-66,197-161,217-153c8,3,13,1,11-5-1-6,8-15,20-19c17-7,21-6,17,5-4,10,15,7,73-11c42-14,80-27,82-30c6-6-56,5-97,18-18,5-35,8-38,6-2-3,24-13,58-24c51-15,94-19,218-19c139,0,162,3,220,24c81,30,182,92,176,108-3,8,1,10,11,6c12-5,14-3,8,7-6,9-4,11,5,5c8-5,42,23,104,86c77,80,99,110,144,199c65,130,82,199,83,320c0,157-60,322-170,471-65,88-165,172-194,164-16-5-18-4-8,3c16,12-3,27-21,16-6-4-8-3-5,3c8,12-67,49-163,80-53,17-106,25-180,29-58,2-109,2-115,0Zm251-32c68-17,129-43,121-50-3-3-15-1-26,6-28,15-187,50-228,50-18,0-33,5-33,11c0,13,83,5,166-17Zm-99-10c-3-3-12-4-19-1-8,3-5,6,6,6c11,1,17-2,13-5Zm-418-68c-2-2-15-9-29-15-24-11-24-11-6,3c16,13,49,24,35,12Zm-69-41c-7-8-18-15-24-15s-2,7,8,15c25,19,32,19,16,0Zm559-270c98-26,188-103,241-205c19-37,24-61,24-135c1-81-2-96-29-148-16-33-45-75-65-95-44-45-156-112-188-112-13,0-21-3-19-7c3-5-52-8-121-8-114,0-132,3-172,24-57,29-81,51-73,64c3,5,1,7-5,4-14-9-76,76-108,149-31,70-38,178-15,234c42,103,142,201,238,236c51,18,224,18,292-1Zm217-1007c-78-40-171-68-246-73l-75-5l80,19c44,11,104,29,134,41c50,19,112,37,136,39c6,0-8-9-29-21Zm-429-74c-3-3-12-4-19-1-8,3-5,6,6,6c11,1,17-2,13-5Z" fill="#404667"/><path d="M18660,6680c99-8,254-45,304-72c11-7,24-11,29-10c4,1,7-2,7-8c0-5,10-11,23-11c15-1,17-3,5-6-9-2-41,7-70,21-55,26-126,44-168,43-14-1-72,1-130,3l-105,4l95,6l95,6-95,1c-85,1-188-12-135-16c11-1-14-12-55-24-68-20-135-51-258-118-84-46-212-222-258-355-56-160-42-366,35-529c52-109,153-233,251-305c146-108,270-150,445-150s258,28,437,149c100,67,129,102,121,144-7,40-43,80-93,102-22,10-50,34-65,56-14,22-32,39-40,39s-15,4-15,9c0,33-89-8-150-69-40-40-312-40-394,0-61,29-131,108-169,188-28,60-32,77-32,157c0,75,4,97,23,133c33,63,84,114,159,163c66,43,67,44,172,48c58,2,135-2,172-9c58-10,76-19,134-67c52-43,69-52,76-42c5,8,9,17,9,20s16,13,35,22s35,21,35,26s24,23,53,40c28,16,65,43,81,60c25,26,28,35,23,67-9,54-118,157-147,139-5-3-20,1-32,9-26,18-17,21,15,5c20-10,20-10,7,4-23,24-146,82-225,107-52,16-101,23-190,25l-120,3l105-8Zm-182-1471c40-11,71-23,69-26-7-6-128,27-157,43-30,17-19,15,88-17Zm477,22c-22-21-105-42-180-46l-80-4l75,14c41,8,95,21,120,29c53,17,78,20,65,7Z" fill="#404667"/><path d="M968,6480l-3-200h203h202v-560-560h176h176l-4,560-3,560h203h202v200v200h-575-574l-3-200Z" fill="#404667"/><path d="M2410,5919v-759l505,2l505,3l2,198l3,199-315-2c-173-2-323-2-332-1-16,1-18,12-18,86v86l253-1l252-1-1,193-2,193h-223c-123,0-236,1-251,3l-28,2v85v84l335-6l335-6v201v200l-510,1h-510v-760Z" fill="#404667"/><path d="M4101,6518c-29-90-88-264-131-388-44-124-115-337-160-475-45-137-97-295-117-350-19-55-37-107-40-116-7-23,40-29,224-29h153l5,28c11,55,70,273,76,284c7,11,459,12,471,0c4-4,17-70,29-147c14-92,27-144,37-152c12-9,67-13,200-13c170,0,183,1,179,18-26,97-105,346-179,562-159,470-237,702-274,823l-37,117h-192-192l-52-162Zm264-338c13-21,96-297,102-337l6-43h-125c-69,0-127,2-130,6-11,10,89,341,111,368c15,18,27,20,36,6Z" fill="#404667"/><path d="M5030,6480v-200h200h200v-560-560h181h181l-3,558-3,557l202,3l202,2v200v200h-580-580v-200Z" fill="#404667"/><path d="M6440,5931c0-413-1-754-2-758-2-5,76-9,173-11l175-2-4,275c-3,154-1,280,4,284c5,5,56,6,113,2l104-6l64-185c53-153,98-288,119-357c2-10,50-13,195-13h192l-5,38c-3,21-40,125-83,232-87,219-125,322-125,338c0,7,13,18,30,27c51,26,99,75,135,137c44,75,60,188,46,323-11,105-26,155-72,231-35,58-115,138-129,129-5-3-11,0-13,5-3,6-4,5-3-2c2-7,9-12,15-10c7,1,10-2,6-7-3-6-26,0-55,15-56,28-63,37-22,29c26-6,26-6,8,9-15,12-43,16-105,16-47,1-238,3-423,6l-338,6v-751Zm749,343l31-6v-108c0-89-3-109-16-114-9-3-105-6-215-6h-199v120v120h184c101,0,198-3,215-6Z" fill="#404667"/><path d="M10198,6499c-2-101-3-444-3-762v-578l365,3c201,2,371,7,378,11c9,6,9,12-4,24-15,15-13,18,27,34c60,24,77,23,43-3-53-39-50-40,21-5c112,56,249,187,323,310c179,296,114,717-151,976-29,27-50,41-58,36s-10-4-5,3c8,14-49,51-124,82-30,12-66,26-80,32s-178,12-377,16l-353,5-2-184Zm667-230c52-15,153-117,191-195c26-52,29-70,29-149-1-79-4-97-30-150-18-35-60-91-102-135l-73-75-165-4-165-3v149c0,83-3,245-7,361l-6,212h144c79,0,162-5,184-11Z" fill="#404667"/><path d="M15480,5931c0-413-1-754-2-758-2-5,76-9,172-11l175-2-3,280-4,280h251h251l2,165c1,91,2,179,2,196l1,32-245,1-245,2-5,60c-3,32-3,69-1,81l3,23l316,2l316,3l4,195l4,195-496,3-496,3v-750Z" fill="#404667"/><path d="M17035,6673l-60-4-92-277c-50-152-159-477-241-722-83-245-152-459-154-475l-3-30l185-3l186-2l39,161l40,161l229-1c126-1,233-4,237-7c5-3,11-21,15-42c10-58,59-246,67-259c10-16,377-19,377-3c0,15-146,460-249,755-105,307-188,557-222,672l-24,83-135-2c-74-1-162-3-195-5Zm143-496c6-7,29-65,50-128c22-63,47-131,56-153c20-49,21-82,0-90-9-3-63-6-120-6-86,0-106,3-111,16-7,18,50,243,92,362c6,16,20,15,33-1Z" fill="#404667"/><path d="M18485,6670c-18-8-18-9,5-9c14,0,34,4,45,9c18,8,18,9-5,9-14,0-34-4-45-9Z"/><path d="M19530,5919v-759h510h510l-2,200-3,201-285-1c-157-1-306-1-332,0h-48v85v85h254h255l-4,193-4,192-226-3c-125-2-237-1-251,2-23,6-24,10-24,86v80h335h335v200v200h-510l-510-1v-760Z" fill="#404667"/><path d="M20810,6481v-201h200h200v-560-560h176h176l-4,560-3,560h203h202v198v197l-575,3-575,4v-201Z" fill="#404667"/><path d="M22421,6518c-29-90-81-244-116-343-126-361-335-998-329-1004c3-3,88-8,189-9l183-4l12,59c7,32,20,85,30,118s24,79,30,103l11,42h234c214,0,234-1,239-17c3-10,17-78,30-152c14-75,31-138,38-142c20-13,378-11,378,2c0,5-20,72-44,147s-69,214-99,307c-30,94-97,292-149,440-52,149-118,348-148,443l-54,172h-191-192l-52-162Zm263-337c13-20,97-299,103-338l6-42-94-3c-52-2-110-1-129,2-44,6-44,10,16,191c24,75,44,142,44,149c0,15,29,50,41,50c4,0,10-4,13-9Z" fill="#404667"/><path d="M8498,6653c12-2,32-2,45,0c12,2,2,4-23,4s-35-2-22-4Z"/><path d="M8588,6653c12-2,30-2,40,0c9,3-1,5-23,4-22,0-30-2-17-4Z"/><path d="M18345,6615c-38-19-74-40-80-46-5-6,14,1,43,15c29,15,58,24,65,20s8-3,4,1c-4,5,7,17,25,27c61,32,13,18-57-17Z"/><path d="M8708,6633c6-2,18-2,25,0c6,3,1,5-13,5s-19-2-12-5Z"/><path d="M18224,6538l-19-23l23,19c21,18,27,26,19,26-2,0-12-10-23-22Z"/><path d="M13938,6123c6-2,18-2,25,0c6,3,1,5-13,5s-19-2-12-5Z"/><path d="M13991,6116c3-3,32-11,65-17c32-6,64-14,69-19c15-12,92-23,80-12-20,19-231,67-214,48Z"/><path d="M24090,6104c36-8,75-19,87-25c11-6,26-9,31-5c6,3,23,1,39-5s24-6,18,0c-13,12-178,51-213,50-15-1,2-7,38-15Z"/><path d="M24340,6040c8-5,22-9,30-9c10,0,8,3-5,9-27,12-43,12-25,0Z"/><path d="M24517,5959c7-7,15-10,18-7s-2,9-12,12c-14,6-15,5-6-5Z"/><path d="M23840,5530c0-12,28-21,35-11c2,5-4,11-15,14s-20,2-20-3Z"/></g><g id="eZmJdaz3s5M43" transform="translate(-27042.393872 36.56006)"><path d="M13895,6750c-139-28-310-133-379-233-102-148-111-319-26-486c48-95,166-186,299-232c68-24,77-23,26,2-43,21-32,19,80-11c74-20,161-55,115-46-14,2-41,7-60,10l-35,6l30-15c17-8,45-14,64-15c19,0,64-5,100-11c114-20,166-57,177-125c17-113-4-123-256-120-197,2-246,10-234,40c3,8-10,19-38,29-39,15-71,40-106,82-17,19-38,14-36-8c1-9-2-15-6-12-4,2-33-32-64-78-31-45-71-102-88-126-22-31-32-56-32-85-1-40,1-42,51-66c29-14,63-36,77-49c28-27,131-61,166-55c14,2,48-2,75-10l50-14-40-2-40-2l45-14c60-19,337-29,419-15c35,5,99,27,143,48c241,113,351,419,237,663-33,72-114,157-158,166-14,3-35,10-46,15l-20,10l20-6c14-5,17-3,9,5-12,12-175,71-187,67-4-1,15-11,43-22c27-11,50-23,50-28s-8-6-17-2c-10,4-47,16-83,26-298,84-347,103-380,149-24,34-25,61-3,107c28,60,62,73,189,73c133,0,213-13,235-39c19-23,73-52,117-62c27-6,35-3,52,19c11,14,29,44,40,66c11,23,40,69,65,104c50,71,55,100,23,138-59,68-274,159-400,169-44,4-57,2-43-4c16-8,12-10-22-10-24-1-43,4-43,9c0,12-96,12-155,0Zm320-20c3-6-1-7-9-4-18,7-21,14-7,14c6,0,13-4,16-10Zm150-730c13-6,15-9,5-9-8,0-22,4-30,9-18,12-2,12,25,0Zm35-834c0-2-7-7-16-10-8-3-12-2-9,4c6,10,25,14,25,6Zm-76-35c-18-11-58-22-90-25-53-5-55-4-24,5c19,6,53,17,75,24c58,19,74,18,39-4Z" fill="#404667"/><path d="M23940,6749c-21-6-22-7-5-9l20-1-20-9c-11-5-34-9-50-9-17-1-37-7-44-13-11-11-13-10-7,0s2,10-21,0c-15-7-30-15-33-18s-27-16-53-30c-65-34-157-131-198-210-33-64-34-67-34-191v-126l43-85c29-60,57-99,91-130c50-45,199-128,229-128c9,1-5,12-33,25-61,29-54,32,14,5c27-10,86-28,131-39c104-26,135-43,65-37-86,9-2-11,97-23c145-17,208-66,208-161c0-79-28-90-223-90-201,0-238,6-278,41-18,16-47,39-66,51-18,13-36,31-39,42-5,14-8,15-14,6-4-7-20-14-34-15-22-3-25-1-15,11c14,17,33,19,23,2-4-7-3-8,4-4c14,8,16,36,4,36-21,0-103-95-132-151-7-13-21-33-30-44-10-11-30-41-44-66-21-39-24-52-16-79c13-44,28-60,58-60c16,0,40-13,62-34c32-32,103-61,121-51c11,7,173-25,184-37c7-7-5-8-40-4-37,5-46,4-33-4c47-29,432-38,498-11c26,10,16,14-30,12-23-1-23,0-5,8c28,13,63,13,67,1c2-6,34,4,74,24c90,45,183,140,224,228c58,126,58,327-1,438-32,60-96,133-109,125-4-3-34,8-67,24-32,16-75,32-96,36-20,4-37,11-37,16s-7,6-15,3c-8-4-21-1-29,5-7,6-15,9-18,6-2-3-43,8-89,24s-113,37-148,46c-87,22-158,59-167,87-10,29-6,85,7,120c16,40,72,58,181,58c103,0,216-16,238-35c8-6,44-29,79-50l64-38l19,24c10,13,39,58,64,99s59,96,76,122c28,43,29,48,16,75-8,15-20,27-27,25-7-1-10,1-7,6c15,25-169,126-231,126-18,0-28,3-22,7c16,10-77,32-106,25-17-4-24-3-20,4c4,6-4,10-19,10-14,0-26-4-26-8c0-5-12-7-27-6-74,8-181,10-203,3Zm631-836c13-16,12-17-3-4-17,13-22,21-14,21c2,0,10-8,17-17Z" fill="#404667"/><path d="M8395,6676c-94-25-223-81-212-92c3-3,32,8,64,25c92,46,172,63,308,64c135,1,202-13,312-66c121-58,154-78,147-88-3-6-18-2-37,11-60,39-126,70-140,65-7-3-24-1-38,5-21,9-20,10,11,5l35-5-39,15c-22,9-42,11-45,6-4-5-34-3-71,4-36,7-119,15-185,18-66,2-106,2-90,0c26-5,21-7-33-19-35-7-70-10-79-7-11,4-14,2-9-5c4-7,2-12-6-12-29,0-201-95-248-137-101-90-205-258-230-367-14-64-15-268-1-329c6-26,25-80,43-120c97-220,280-387,508-464c80-26,351-26,430,1c59,19,141,63,152,79c3,6,14,12,23,13c37,5,182,154,246,251c84,129,118,244,119,397c0,112-17,188-64,292-59,127-165,272-189,257-5-3-7-2-4,4c12,19-96,101-188,142-117,53-165,63-305,67-92,2-151-1-185-10Zm523-124c12-8,22-16,22-18c0-5-82,35-90,43-10,10,45-10,68-25Zm-235-287c118-31,195-94,248-201c29-58,31-69,28-151-3-76-9-98-37-155-49-101-148-170-267-188l-60-9l65,3c36,2,74,7,85,11c15,5,16,4,5-3-63-40-282-42-357-3-24,12-43,26-43,31c0,6-6,10-14,10-23,0-116,107-142,164-64,139-47,257,52,376c34,40,131,106,175,118c53,16,198,14,262-3Zm317-950c0-2-10-10-22-16-21-11-22-11-9,4c13,16,31,23,31,12Zm-90-55c-77-59-254-96-409-86-87,6-203,35-225,57-15,14,4,11,67-11c87-31,185-42,270-30c75,11,181,41,229,66c15,8,28,11,28,7s5-2,12,5s21,12,33,12c19,0,18-2-5-20Z" fill="#404667"/><path d="M8473,5563c9-2,25-2,35,0c9,3,1,5-18,5s-27-2-17-5Z"/><path d="M12355,6686c-5-2-36-9-68-16-88-18-62-22,34-5c98,18,99,18,99,6c0-4-28-11-62-14-35-4-74-9-88-12-14-4-46-8-72-9-102-7-265-132-389-297-91-122-146-302-135-444c6-86,42-229,71-285c33-64,98-154,154-213c63-66,197-161,217-153c8,3,13,1,11-5-1-6,8-15,20-19c17-7,21-6,17,5-4,10,15,7,73-11c42-14,80-27,82-30c6-6-56,5-97,18-18,5-35,8-38,6-2-3,24-13,58-24c51-15,94-19,218-19c139,0,162,3,220,24c81,30,182,92,176,108-3,8,1,10,11,6c12-5,14-3,8,7-6,9-4,11,5,5c8-5,42,23,104,86c77,80,99,110,144,199c65,130,82,199,83,320c0,157-60,322-170,471-65,88-165,172-194,164-16-5-18-4-8,3c16,12-3,27-21,16-6-4-8-3-5,3c8,12-67,49-163,80-53,17-106,25-180,29-58,2-109,2-115,0Zm251-32c68-17,129-43,121-50-3-3-15-1-26,6-28,15-187,50-228,50-18,0-33,5-33,11c0,13,83,5,166-17Zm-99-10c-3-3-12-4-19-1-8,3-5,6,6,6c11,1,17-2,13-5Zm-418-68c-2-2-15-9-29-15-24-11-24-11-6,3c16,13,49,24,35,12Zm-69-41c-7-8-18-15-24-15s-2,7,8,15c25,19,32,19,16,0Zm559-270c98-26,188-103,241-205c19-37,24-61,24-135c1-81-2-96-29-148-16-33-45-75-65-95-44-45-156-112-188-112-13,0-21-3-19-7c3-5-52-8-121-8-114,0-132,3-172,24-57,29-81,51-73,64c3,5,1,7-5,4-14-9-76,76-108,149-31,70-38,178-15,234c42,103,142,201,238,236c51,18,224,18,292-1Zm217-1007c-78-40-171-68-246-73l-75-5l80,19c44,11,104,29,134,41c50,19,112,37,136,39c6,0-8-9-29-21Zm-429-74c-3-3-12-4-19-1-8,3-5,6,6,6c11,1,17-2,13-5Z" fill="#404667"/><path d="M18660,6680c99-8,254-45,304-72c11-7,24-11,29-10c4,1,7-2,7-8c0-5,10-11,23-11c15-1,17-3,5-6-9-2-41,7-70,21-55,26-126,44-168,43-14-1-72,1-130,3l-105,4l95,6l95,6-95,1c-85,1-188-12-135-16c11-1-14-12-55-24-68-20-135-51-258-118-84-46-212-222-258-355-56-160-42-366,35-529c52-109,153-233,251-305c146-108,270-150,445-150s258,28,437,149c100,67,129,102,121,144-7,40-43,80-93,102-22,10-50,34-65,56-14,22-32,39-40,39s-15,4-15,9c0,33-89-8-150-69-40-40-312-40-394,0-61,29-131,108-169,188-28,60-32,77-32,157c0,75,4,97,23,133c33,63,84,114,159,163c66,43,67,44,172,48c58,2,135-2,172-9c58-10,76-19,134-67c52-43,69-52,76-42c5,8,9,17,9,20s16,13,35,22s35,21,35,26s24,23,53,40c28,16,65,43,81,60c25,26,28,35,23,67-9,54-118,157-147,139-5-3-20,1-32,9-26,18-17,21,15,5c20-10,20-10,7,4-23,24-146,82-225,107-52,16-101,23-190,25l-120,3l105-8Zm-182-1471c40-11,71-23,69-26-7-6-128,27-157,43-30,17-19,15,88-17Zm477,22c-22-21-105-42-180-46l-80-4l75,14c41,8,95,21,120,29c53,17,78,20,65,7Z" fill="#404667"/><path d="M968,6480l-3-200h203h202v-560-560h176h176l-4,560-3,560h203h202v200v200h-575-574l-3-200Z" fill="#404667"/><path d="M2410,5919v-759l505,2l505,3l2,198l3,199-315-2c-173-2-323-2-332-1-16,1-18,12-18,86v86l253-1l252-1-1,193-2,193h-223c-123,0-236,1-251,3l-28,2v85v84l335-6l335-6v201v200l-510,1h-510v-760Z" fill="#404667"/><path d="M4101,6518c-29-90-88-264-131-388-44-124-115-337-160-475-45-137-97-295-117-350-19-55-37-107-40-116-7-23,40-29,224-29h153l5,28c11,55,70,273,76,284c7,11,459,12,471,0c4-4,17-70,29-147c14-92,27-144,37-152c12-9,67-13,200-13c170,0,183,1,179,18-26,97-105,346-179,562-159,470-237,702-274,823l-37,117h-192-192l-52-162Zm264-338c13-21,96-297,102-337l6-43h-125c-69,0-127,2-130,6-11,10,89,341,111,368c15,18,27,20,36,6Z" fill="#404667"/><path d="M5030,6480v-200h200h200v-560-560h181h181l-3,558-3,557l202,3l202,2v200v200h-580-580v-200Z" fill="#404667"/><path d="M6440,5931c0-413-1-754-2-758-2-5,76-9,173-11l175-2-4,275c-3,154-1,280,4,284c5,5,56,6,113,2l104-6l64-185c53-153,98-288,119-357c2-10,50-13,195-13h192l-5,38c-3,21-40,125-83,232-87,219-125,322-125,338c0,7,13,18,30,27c51,26,99,75,135,137c44,75,60,188,46,323-11,105-26,155-72,231-35,58-115,138-129,129-5-3-11,0-13,5-3,6-4,5-3-2c2-7,9-12,15-10c7,1,10-2,6-7-3-6-26,0-55,15-56,28-63,37-22,29c26-6,26-6,8,9-15,12-43,16-105,16-47,1-238,3-423,6l-338,6v-751Zm749,343l31-6v-108c0-89-3-109-16-114-9-3-105-6-215-6h-199v120v120h184c101,0,198-3,215-6Z" fill="#404667"/><path d="M10198,6499c-2-101-3-444-3-762v-578l365,3c201,2,371,7,378,11c9,6,9,12-4,24-15,15-13,18,27,34c60,24,77,23,43-3-53-39-50-40,21-5c112,56,249,187,323,310c179,296,114,717-151,976-29,27-50,41-58,36s-10-4-5,3c8,14-49,51-124,82-30,12-66,26-80,32s-178,12-377,16l-353,5-2-184Zm667-230c52-15,153-117,191-195c26-52,29-70,29-149-1-79-4-97-30-150-18-35-60-91-102-135l-73-75-165-4-165-3v149c0,83-3,245-7,361l-6,212h144c79,0,162-5,184-11Z" fill="#404667"/><path d="M15480,5931c0-413-1-754-2-758-2-5,76-9,172-11l175-2-3,280-4,280h251h251l2,165c1,91,2,179,2,196l1,32-245,1-245,2-5,60c-3,32-3,69-1,81l3,23l316,2l316,3l4,195l4,195-496,3-496,3v-750Z" fill="#404667"/><path d="M17035,6673l-60-4-92-277c-50-152-159-477-241-722-83-245-152-459-154-475l-3-30l185-3l186-2l39,161l40,161l229-1c126-1,233-4,237-7c5-3,11-21,15-42c10-58,59-246,67-259c10-16,377-19,377-3c0,15-146,460-249,755-105,307-188,557-222,672l-24,83-135-2c-74-1-162-3-195-5Zm143-496c6-7,29-65,50-128c22-63,47-131,56-153c20-49,21-82,0-90-9-3-63-6-120-6-86,0-106,3-111,16-7,18,50,243,92,362c6,16,20,15,33-1Z" fill="#404667"/><path d="M18485,6670c-18-8-18-9,5-9c14,0,34,4,45,9c18,8,18,9-5,9-14,0-34-4-45-9Z"/><path d="M19530,5919v-759h510h510l-2,200-3,201-285-1c-157-1-306-1-332,0h-48v85v85h254h255l-4,193-4,192-226-3c-125-2-237-1-251,2-23,6-24,10-24,86v80h335h335v200v200h-510l-510-1v-760Z" fill="#404667"/><path d="M20810,6481v-201h200h200v-560-560h176h176l-4,560-3,560h203h202v198v197l-575,3-575,4v-201Z" fill="#404667"/><path d="M22421,6518c-29-90-81-244-116-343-126-361-335-998-329-1004c3-3,88-8,189-9l183-4l12,59c7,32,20,85,30,118s24,79,30,103l11,42h234c214,0,234-1,239-17c3-10,17-78,30-152c14-75,31-138,38-142c20-13,378-11,378,2c0,5-20,72-44,147s-69,214-99,307c-30,94-97,292-149,440-52,149-118,348-148,443l-54,172h-191-192l-52-162Zm263-337c13-20,97-299,103-338l6-42-94-3c-52-2-110-1-129,2-44,6-44,10,16,191c24,75,44,142,44,149c0,15,29,50,41,50c4,0,10-4,13-9Z" fill="#404667"/><path d="M8498,6653c12-2,32-2,45,0c12,2,2,4-23,4s-35-2-22-4Z"/><path d="M8588,6653c12-2,30-2,40,0c9,3-1,5-23,4-22,0-30-2-17-4Z"/><path d="M18345,6615c-38-19-74-40-80-46-5-6,14,1,43,15c29,15,58,24,65,20s8-3,4,1c-4,5,7,17,25,27c61,32,13,18-57-17Z"/><path d="M8708,6633c6-2,18-2,25,0c6,3,1,5-13,5s-19-2-12-5Z"/><path d="M18224,6538l-19-23l23,19c21,18,27,26,19,26-2,0-12-10-23-22Z"/><path d="M13938,6123c6-2,18-2,25,0c6,3,1,5-13,5s-19-2-12-5Z"/><path d="M13991,6116c3-3,32-11,65-17c32-6,64-14,69-19c15-12,92-23,80-12-20,19-231,67-214,48Z"/><path d="M24090,6104c36-8,75-19,87-25c11-6,26-9,31-5c6,3,23,1,39-5s24-6,18,0c-13,12-178,51-213,50-15-1,2-7,38-15Z"/><path d="M24340,6040c8-5,22-9,30-9c10,0,8,3-5,9-27,12-43,12-25,0Z"/><path d="M24517,5959c7-7,15-10,18-7s-2,9-12,12c-14,6-15,5-6-5Z"/><path d="M23840,5530c0-12,28-21,35-11c2,5-4,11-15,14s-20,2-20-3Z"/></g></g>
<script><![CDATA[
!function(t,n){"object"==typeof exports&&"undefined"!=typeof module?module.exports=n():"function"==typeof __SVGATOR_DEFINE__&&__SVGATOR_DEFINE__.amd?__SVGATOR_DEFINE__(n):((t="undefined"!=typeof globalThis?globalThis:t||self).__SVGATOR_PLAYER__=t.__SVGATOR_PLAYER__||{},t.__SVGATOR_PLAYER__["5c7f360c"]=n())}(this,(function(){"use strict";function t(t,n){var e=Object.keys(t);if(Object.getOwnPropertySymbols){var r=Object.getOwnPropertySymbols(t);n&&(r=r.filter((function(n){return Object.getOwnPropertyDescriptor(t,n).enumerable}))),e.push.apply(e,r)}return e}function n(n){for(var e=1;e<arguments.length;e++){var r=null!=arguments[e]?arguments[e]:{};e%2?t(Object(r),!0).forEach((function(t){u(n,t,r[t])})):Object.getOwnPropertyDescriptors?Object.defineProperties(n,Object.getOwnPropertyDescriptors(r)):t(Object(r)).forEach((function(t){Object.defineProperty(n,t,Object.getOwnPropertyDescriptor(r,t))}))}return n}function e(t){return(e="function"==typeof Symbol&&"symbol"==typeof Symbol.iterator?function(t){return typeof t}:function(t){return t&&"function"==typeof Symbol&&t.constructor===Symbol&&t!==Symbol.prototype?"symbol":typeof t})(t)}function r(t,n){if(!(t instanceof n))throw new TypeError("Cannot call a class as a function")}function i(t,n){for(var e=0;e<n.length;e++){var r=n[e];r.enumerable=r.enumerable||!1,r.configurable=!0,"value"in r&&(r.writable=!0),Object.defineProperty(t,r.key,r)}}function o(t,n,e){return n&&i(t.prototype,n),e&&i(t,e),t}function u(t,n,e){return n in t?Object.defineProperty(t,n,{value:e,enumerable:!0,configurable:!0,writable:!0}):t[n]=e,t}function a(t){return(a=Object.setPrototypeOf?Object.getPrototypeOf:function(t){return t.__proto__||Object.getPrototypeOf(t)})(t)}function l(t,n){return(l=Object.setPrototypeOf||function(t,n){return t.__proto__=n,t})(t,n)}function s(){if("undefined"==typeof Reflect||!Reflect.construct)return!1;if(Reflect.construct.sham)return!1;if("function"==typeof Proxy)return!0;try{return Boolean.prototype.valueOf.call(Reflect.construct(Boolean,[],(function(){}))),!0}catch(t){return!1}}function f(t,n,e){return(f=s()?Reflect.construct:function(t,n,e){var r=[null];r.push.apply(r,n);var i=new(Function.bind.apply(t,r));return e&&l(i,e.prototype),i}).apply(null,arguments)}function c(t,n){if(n&&("object"==typeof n||"function"==typeof n))return n;if(void 0!==n)throw new TypeError("Derived constructors may only return object or undefined");return function(t){if(void 0===t)throw new ReferenceError("this hasn't been initialised - super() hasn't been called");return t}(t)}function h(t,n,e){return(h="undefined"!=typeof Reflect&&Reflect.get?Reflect.get:function(t,n,e){var r=function(t,n){for(;!Object.prototype.hasOwnProperty.call(t,n)&&null!==(t=a(t)););return t}(t,n);if(r){var i=Object.getOwnPropertyDescriptor(r,n);return i.get?i.get.call(e):i.value}})(t,n,e||t)}function v(t){return function(t){if(Array.isArray(t))return y(t)}(t)||function(t){if("undefined"!=typeof Symbol&&null!=t[Symbol.iterator]||null!=t["@@iterator"])return Array.from(t)}(t)||function(t,n){if(!t)return;if("string"==typeof t)return y(t,n);var e=Object.prototype.toString.call(t).slice(8,-1);"Object"===e&&t.constructor&&(e=t.constructor.name);if("Map"===e||"Set"===e)return Array.from(t);if("Arguments"===e||/^(?:Ui|I)nt(?:8|16|32)(?:Clamped)?Array$/.test(e))return y(t,n)}(t)||function(){throw new TypeError("Invalid attempt to spread non-iterable instance.\nIn order to be iterable, non-array objects must have a [Symbol.iterator]() method.")}()}function y(t,n){(null==n||n>t.length)&&(n=t.length);for(var e=0,r=new Array(n);e<n;e++)r[e]=t[e];return r}function g(t,n,e){if(Number.isInteger(t))return t;var r=Math.pow(10,n);return Math[e]((+t+Number.EPSILON)*r)/r}Number.isInteger||(Number.isInteger=function(t){return"number"==typeof t&&isFinite(t)&&Math.floor(t)===t}),Number.EPSILON||(Number.EPSILON=2220446049250313e-31);var d=p(Math.pow(10,-6));function p(t){var n=arguments.length>1&&void 0!==arguments[1]?arguments[1]:6;return g(t,n,"round")}function m(t,n){var e=arguments.length>2&&void 0!==arguments[2]?arguments[2]:d;return Math.abs(t-n)<e}p(Math.pow(10,-2)),p(Math.pow(10,-4));var b=Math.PI/180;function w(t){return t}function A(t,n,e){var r=1-e;return 3*e*r*(t*r+n*e)+e*e*e}function _(){var t=arguments.length>0&&void 0!==arguments[0]?arguments[0]:0,n=arguments.length>1&&void 0!==arguments[1]?arguments[1]:0,e=arguments.length>2&&void 0!==arguments[2]?arguments[2]:1,r=arguments.length>3&&void 0!==arguments[3]?arguments[3]:1;return t<0||t>1||e<0||e>1?null:m(t,n)&&m(e,r)?w:function(i){if(i<=0)return t>0?i*n/t:0===n&&e>0?i*r/e:0;if(i>=1)return e<1?1+(i-1)*(r-1)/(e-1):1===e&&t<1?1+(i-1)*(n-1)/(t-1):1;for(var o,u=0,a=1;u<a;){var l=A(t,e,o=(u+a)/2);if(m(i,l))break;l<i?u=o:a=o}return A(n,r,o)}}function x(){return 1}function k(t){return 1===t?1:0}function S(){var t=arguments.length>0&&void 0!==arguments[0]?arguments[0]:1,n=arguments.length>1&&void 0!==arguments[1]?arguments[1]:0;if(1===t){if(0===n)return k;if(1===n)return x}var e=1/t;return function(t){return t>=1?1:(t+=n*e)-t%e}}var O=Math.sin,j=Math.cos,M=Math.acos,E=Math.asin,P=Math.tan,I=Math.atan2,R=Math.PI/180,F=180/Math.PI,N=Math.sqrt,T=function(){function t(){var n=arguments.length>0&&void 0!==arguments[0]?arguments[0]:1,e=arguments.length>1&&void 0!==arguments[1]?arguments[1]:0,i=arguments.length>2&&void 0!==arguments[2]?arguments[2]:0,o=arguments.length>3&&void 0!==arguments[3]?arguments[3]:1,u=arguments.length>4&&void 0!==arguments[4]?arguments[4]:0,a=arguments.length>5&&void 0!==arguments[5]?arguments[5]:0;r(this,t),this.m=[n,e,i,o,u,a],this.i=null,this.w=null,this.s=null}return o(t,[{key:"determinant",get:function(){var t=this.m;return t[0]*t[3]-t[1]*t[2]}},{key:"isIdentity",get:function(){if(null===this.i){var t=this.m;this.i=1===t[0]&&0===t[1]&&0===t[2]&&1===t[3]&&0===t[4]&&0===t[5]}return this.i}},{key:"point",value:function(t,n){var e=this.m;return{x:e[0]*t+e[2]*n+e[4],y:e[1]*t+e[3]*n+e[5]}}},{key:"translateSelf",value:function(){var t=arguments.length>0&&void 0!==arguments[0]?arguments[0]:0,n=arguments.length>1&&void 0!==arguments[1]?arguments[1]:0;if(!t&&!n)return this;var e=this.m;return e[4]+=e[0]*t+e[2]*n,e[5]+=e[1]*t+e[3]*n,this.w=this.s=this.i=null,this}},{key:"rotateSelf",value:function(){var t=arguments.length>0&&void 0!==arguments[0]?arguments[0]:0;if(t%=360){var n=O(t*=R),e=j(t),r=this.m,i=r[0],o=r[1];r[0]=i*e+r[2]*n,r[1]=o*e+r[3]*n,r[2]=r[2]*e-i*n,r[3]=r[3]*e-o*n,this.w=this.s=this.i=null}return this}},{key:"scaleSelf",value:function(){var t=arguments.length>0&&void 0!==arguments[0]?arguments[0]:1,n=arguments.length>1&&void 0!==arguments[1]?arguments[1]:1;if(1!==t||1!==n){var e=this.m;e[0]*=t,e[1]*=t,e[2]*=n,e[3]*=n,this.w=this.s=this.i=null}return this}},{key:"skewSelf",value:function(t,n){if(n%=360,(t%=360)||n){var e=this.m,r=e[0],i=e[1],o=e[2],u=e[3];t&&(t=P(t*R),e[2]+=r*t,e[3]+=i*t),n&&(n=P(n*R),e[0]+=o*n,e[1]+=u*n),this.w=this.s=this.i=null}return this}},{key:"resetSelf",value:function(){var t=arguments.length>0&&void 0!==arguments[0]?arguments[0]:1,n=arguments.length>1&&void 0!==arguments[1]?arguments[1]:0,e=arguments.length>2&&void 0!==arguments[2]?arguments[2]:0,r=arguments.length>3&&void 0!==arguments[3]?arguments[3]:1,i=arguments.length>4&&void 0!==arguments[4]?arguments[4]:0,o=arguments.length>5&&void 0!==arguments[5]?arguments[5]:0,u=this.m;return u[0]=t,u[1]=n,u[2]=e,u[3]=r,u[4]=i,u[5]=o,this.w=this.s=this.i=null,this}},{key:"recomposeSelf",value:function(){var t=arguments.length>0&&void 0!==arguments[0]?arguments[0]:null,n=arguments.length>1&&void 0!==arguments[1]?arguments[1]:null,e=arguments.length>2&&void 0!==arguments[2]?arguments[2]:null,r=arguments.length>3&&void 0!==arguments[3]?arguments[3]:null,i=arguments.length>4&&void 0!==arguments[4]?arguments[4]:null;return this.isIdentity||this.resetSelf(),t&&(t.x||t.y)&&this.translateSelf(t.x,t.y),n&&this.rotateSelf(n),e&&(e.x&&this.skewSelf(e.x,0),e.y&&this.skewSelf(0,e.y)),!r||1===r.x&&1===r.y||this.scaleSelf(r.x,r.y),i&&(i.x||i.y)&&this.translateSelf(i.x,i.y),this}},{key:"decompose",value:function(){var t=arguments.length>0&&void 0!==arguments[0]?arguments[0]:0,n=arguments.length>1&&void 0!==arguments[1]?arguments[1]:0,e=this.m,r=e[0]*e[0]+e[1]*e[1],i=[[e[0],e[1]],[e[2],e[3]]],o=N(r);if(0===o)return{origin:{x:p(e[4]),y:p(e[5])},translate:{x:p(t),y:p(n)},scale:{x:0,y:0},skew:{x:0,y:0},rotate:0};i[0][0]/=o,i[0][1]/=o;var u=e[0]*e[3]-e[1]*e[2]<0;u&&(o=-o);var a=i[0][0]*i[1][0]+i[0][1]*i[1][1];i[1][0]-=i[0][0]*a,i[1][1]-=i[0][1]*a;var l=N(i[1][0]*i[1][0]+i[1][1]*i[1][1]);if(0===l)return{origin:{x:p(e[4]),y:p(e[5])},translate:{x:p(t),y:p(n)},scale:{x:p(o),y:0},skew:{x:0,y:0},rotate:0};i[1][0]/=l,i[1][1]/=l,a/=l;var s=0;return i[1][1]<0?(s=M(i[1][1])*F,i[0][1]<0&&(s=360-s)):s=E(i[0][1])*F,u&&(s=-s),a=I(a,N(i[0][0]*i[0][0]+i[0][1]*i[0][1]))*F,u&&(a=-a),{origin:{x:p(e[4]),y:p(e[5])},translate:{x:p(t),y:p(n)},scale:{x:p(o),y:p(l)},skew:{x:p(a),y:0},rotate:p(s)}}},{key:"clone",value:function(){var t=this.m;return new this.constructor(t[0],t[1],t[2],t[3],t[4],t[5])}},{key:"toString",value:function(){var t=arguments.length>0&&void 0!==arguments[0]?arguments[0]:" ";if(null===this.s){var n=this.m.map((function(t){return p(t)}));1===n[0]&&0===n[1]&&0===n[2]&&1===n[3]?this.s="translate("+n[4]+t+n[5]+")":this.s="matrix("+n.join(t)+")"}return this.s}}],[{key:"create",value:function(t){return t?Array.isArray(t)?f(this,v(t)):t instanceof this?t.clone():(new this).recomposeSelf(t.origin,t.rotate,t.skew,t.scale,t.translate):new this}}]),t}();function q(t,n,e){return t>=.5?e:n}function B(t,n,e){return 0===t||n===e?n:t*(e-n)+n}function D(t,n,e){var r=B(t,n,e);return r<=0?0:r}function L(t,n,e){var r=B(t,n,e);return r<=0?0:r>=1?1:r}function C(t,n,e){return 0===t?n:1===t?e:{x:B(t,n.x,e.x),y:B(t,n.y,e.y)}}function V(t,n,e){var r=function(t,n,e){return Math.round(B(t,n,e))}(t,n,e);return r<=0?0:r>=255?255:r}function G(t,n,e){return 0===t?n:1===t?e:{r:V(t,n.r,e.r),g:V(t,n.g,e.g),b:V(t,n.b,e.b),a:B(t,null==n.a?1:n.a,null==e.a?1:e.a)}}function z(t,n){for(var e=[],r=0;r<t;r++)e.push(n);return e}function Y(t,n){if(--n<=0)return t;var e=(t=Object.assign([],t)).length;do{for(var r=0;r<e;r++)t.push(t[r])}while(--n>0);return t}var $,U=function(){function t(n){r(this,t),this.list=n,this.length=n.length}return o(t,[{key:"setAttribute",value:function(t,n){for(var e=this.list,r=0;r<this.length;r++)e[r].setAttribute(t,n)}},{key:"removeAttribute",value:function(t){for(var n=this.list,e=0;e<this.length;e++)n[e].removeAttribute(t)}},{key:"style",value:function(t,n){for(var e=this.list,r=0;r<this.length;r++)e[r].style[t]=n}}]),t}(),Q=/-./g,H=function(t,n){return n.toUpperCase()};function J(t){return"function"==typeof t?t:q}function Z(t){return t?"function"==typeof t?t:Array.isArray(t)?function(t){var n=arguments.length>1&&void 0!==arguments[1]?arguments[1]:w;if(!Array.isArray(t))return n;switch(t.length){case 1:return S(t[0])||n;case 2:return S(t[0],t[1])||n;case 4:return _(t[0],t[1],t[2],t[3])||n}return n}(t,null):function(t,n){var e=arguments.length>2&&void 0!==arguments[2]?arguments[2]:w;switch(t){case"linear":return w;case"steps":return S(n.steps||1,n.jump||0)||e;case"bezier":case"cubic-bezier":return _(n.x1||0,n.y1||0,n.x2||0,n.y2||0)||e}return e}(t.type,t.value,null):null}function K(t,n,e){var r=arguments.length>3&&void 0!==arguments[3]&&arguments[3],i=n.length-1;if(t<=n[0].t)return r?[0,0,n[0].v]:n[0].v;if(t>=n[i].t)return r?[i,1,n[i].v]:n[i].v;var o,u=n[0],a=null;for(o=1;o<=i;o++){if(!(t>n[o].t)){a=n[o];break}u=n[o]}return null==a?r?[i,1,n[i].v]:n[i].v:u.t===a.t?r?[o,1,a.v]:a.v:(t=(t-u.t)/(a.t-u.t),u.e&&(t=u.e(t)),r?[o,t,e(t,u.v,a.v)]:e(t,u.v,a.v))}function W(t,n){var e=arguments.length>2&&void 0!==arguments[2]?arguments[2]:null;return t&&t.length?"function"!=typeof n?null:("function"!=typeof e&&(e=null),function(r){var i=K(r,t,n);return null!=i&&e&&(i=e(i)),i}):null}function X(t,n){return t.t-n.t}function tt(t,n,r,i,o){var u,a="@"===r[0],l="#"===r[0],s=$[r],f=q;switch(a?(u=r.substr(1),r=u.replace(Q,H)):l&&(r=r.substr(1)),e(s)){case"function":if(f=s(i,o,K,Z,r,a,n,t),l)return f;break;case"string":f=W(i,J(s));break;case"object":if((f=W(i,J(s.i),s.f))&&"function"==typeof s.u)return s.u(n,f,r,a,t)}return f?function(t,n,e){if(arguments.length>3&&void 0!==arguments[3]&&arguments[3])return t instanceof U?function(r){return t.style(n,e(r))}:function(r){return t.style[n]=e(r)};if(Array.isArray(n)){var r=n.length;return function(i){var o=e(i);if(null==o)for(var u=0;u<r;u++)t[u].removeAttribute(n);else for(var a=0;a<r;a++)t[a].setAttribute(n,o)}}return function(r){var i=e(r);null==i?t.removeAttribute(n):t.setAttribute(n,i)}}(n,r,f,a):null}function nt(t,n,r,i){if(!i||"object"!==e(i))return null;var o=null,u=null;return Array.isArray(i)?u=function(t){if(!t||!t.length)return null;for(var n=0;n<t.length;n++)t[n].e&&(t[n].e=Z(t[n].e));return t.sort(X)}(i):(u=i.keys,o=i.data||null),u?tt(t,n,r,u,o):null}function et(t,n,e){if(!e)return null;var r=[];for(var i in e)if(e.hasOwnProperty(i)){var o=nt(t,n,i,e[i]);o&&r.push(o)}return r.length?r:null}function rt(t,n){if(!n.settings.duration||n.settings.duration<0)return null;var e,r,i,o,u,a=function(t,n){if(!n)return null;var e=[];if(Array.isArray(n))for(var r=n.length,i=0;i<r;i++){var o=n[i];if(2===o.length){var u=null;if("string"==typeof o[0])u=t.getElementById(o[0]);else if(Array.isArray(o[0])){u=[];for(var a=0;a<o[0].length;a++)if("string"==typeof o[0][a]){var l=t.getElementById(o[0][a]);l&&u.push(l)}u=u.length?1===u.length?u[0]:new U(u):null}if(u){var s=et(t,u,o[1]);s&&(e=e.concat(s))}}}else for(var f in n)if(n.hasOwnProperty(f)){var c=t.getElementById(f);if(c){var h=et(t,c,n[f]);h&&(e=e.concat(h))}}return e.length?e:null}(t,n.elements);return a?(e=a,r=n.settings,i=r.duration,o=e.length,u=null,function(t,n){var a=r.iterations||1/0,l=(r.alternate&&a%2==0)^r.direction>0?i:0,s=t%i,f=1+(t-s)/i;n*=r.direction,r.alternate&&f%2==0&&(n=-n);var c=!1;if(f>a)s=l,c=!0,-1===r.fill&&(s=r.direction>0?0:i);else if(n<0&&(s=i-s),s===u)return!1;u=s;for(var h=0;h<o;h++)e[h](s);return c}):null}function it(t,n){for(var e=n.querySelectorAll("svg"),r=0;r<e.length;r++)if(e[r].id===t.root&&!e[r].svgatorAnimation)return e[r].svgatorAnimation=!0,e[r];return null}function ot(t){var n=function(t){return t.shadowRoot};return document?Array.from(t.querySelectorAll(":not("+["a","area","audio","br","canvas","circle","datalist","embed","g","head","hr","iframe","img","input","link","object","path","polygon","rect","script","source","style","svg","title","track","video"].join()+")")).filter(n).map(n):[]}function ut(t){var n=arguments.length>1&&void 0!==arguments[1]?arguments[1]:document,e=arguments.length>2&&void 0!==arguments[2]?arguments[2]:0,r=it(t,n);if(r)return r;if(e>=20)return null;for(var i=ot(n),o=0;o<i.length;o++){var u=ut(t,i[o],e+1);if(u)return u}return null}function at(t,n){if($=n,!t||!t.root||!Array.isArray(t.animations))return null;var e=ut(t);if(!e)return null;var r=t.animations.map((function(t){return rt(e,t)})).filter((function(t){return!!t}));return r.length?{svg:e,animations:r,animationSettings:t.animationSettings,options:t.options||void 0}:null}function lt(t){var n=arguments.length>1&&void 0!==arguments[1]?arguments[1]:null,e=arguments.length>2&&void 0!==arguments[2]?arguments[2]:Number,r=arguments.length>3&&void 0!==arguments[3]?arguments[3]:"undefined"!=typeof BigInt&&BigInt,i="0x"+(t.replace(/[^0-9a-fA-F]+/g,"")||27);return n&&r&&e.isSafeInteger&&!e.isSafeInteger(+i)?e(r(i))%n+n:+i}function st(t,n,e){return!t||!e||n>t.length?t:t.substring(0,n)+st(t.substring(n+1),e,e)}function ft(t){var n=arguments.length>1&&void 0!==arguments[1]?arguments[1]:27;return!t||t%n?t%n:[0,1].includes(n)?n:ft(t/n,n)}function ct(t,n,e){if(t&&t.length){var r=lt(e),i=ft(r)+5,o=st(t,ft(r,5),i);return o=o.replace(/\x7c$/g,"==").replace(/\x2f$/g,"="),o=function(t,n,e){var r=+("0x"+t.substring(0,4));t=t.substring(4);for(var i=lt(n,r)%r+e%27,o=[],u=0;u<t.length;u+=2)if("|"!==t[u]){var a=+("0x"+t[u]+t[u+1])-i;o.push(a)}else{var l=+("0x"+t.substring(u+1,u+1+4))-i;u+=3,o.push(l)}return String.fromCharCode.apply(String,o)}(o=(o=atob(o)).replace(/[\x41-\x5A]/g,""),n,r),o=JSON.parse(o)}}var ht=[{key:"alternate",def:!1},{key:"fill",def:1},{key:"iterations",def:0},{key:"direction",def:1},{key:"speed",def:1},{key:"fps",def:100}],vt=function(){function t(n,e){var i=this,o=arguments.length>2&&void 0!==arguments[2]?arguments[2]:null;r(this,t),this._id=0,this._running=!1,this._rollingBack=!1,this._animations=n,this._settings=e,(!o||o<"2022-05-02")&&delete this._settings.speed,ht.forEach((function(t){i._settings[t.key]=i._settings[t.key]||t.def})),this.duration=e.duration,this.offset=e.offset||0,this.rollbackStartOffset=0}return o(t,[{key:"alternate",get:function(){return this._settings.alternate}},{key:"fill",get:function(){return this._settings.fill}},{key:"iterations",get:function(){return this._settings.iterations}},{key:"direction",get:function(){return this._settings.direction}},{key:"speed",get:function(){return this._settings.speed}},{key:"fps",get:function(){return this._settings.fps}},{key:"maxFiniteDuration",get:function(){return this.iterations>0?this.iterations*this.duration:this.duration}},{key:"_apply",value:function(t){for(var n=arguments.length>1&&void 0!==arguments[1]?arguments[1]:{},e=this._animations,r=e.length,i=0,o=0;o<r;o++)n[o]?i++:(n[o]=e[o](t,1),n[o]&&i++);return i}},{key:"_rollback",value:function(t){var n=this,e=1/0,r=null;this.rollbackStartOffset=t,this._rollingBack=!0,this._running=!0;this._id=window.requestAnimationFrame((function i(o){if(n._rollingBack){null==r&&(r=o);var u=Math.round(t-(o-r)*n.speed);if(u>n.duration&&e!==1/0){var a=!!n.alternate&&u/n.duration%2>1,l=u%n.duration;u=(l+=a?n.duration:0)||n.duration}var s=(n.fps?1e3/n.fps:0)*n.speed,f=Math.max(0,u);f<=e-s&&(n.offset=f,e=f,n._apply(f));var c=n.iterations>0&&-1===n.fill&&u>=n.maxFiniteDuration;(u<=0||n.offset<u||c)&&n.stop(),n._id=window.requestAnimationFrame(i)}}))}},{key:"_start",value:function(){var t=this,n=arguments.length>0&&void 0!==arguments[0]?arguments[0]:0,e=-1/0,r=null,i={};this._running=!0;var o=function o(u){null==r&&(r=u);var a=Math.round((u-r)*t.speed+n),l=(t.fps?1e3/t.fps:0)*t.speed;if(a>=e+l&&!t._rollingBack&&(t.offset=a,e=a,t._apply(a,i)===t._animations.length))return void t.pause(!0);t._id=window.requestAnimationFrame(o)};this._id=window.requestAnimationFrame(o)}},{key:"_pause",value:function(){this._id&&window.cancelAnimationFrame(this._id),this._running=!1}},{key:"play",value:function(){if(!this._running)return this._rollingBack?this._rollback(this.offset):this._start(this.offset)}},{key:"stop",value:function(){this._pause(),this.offset=0,this.rollbackStartOffset=0,this._rollingBack=!1,this._apply(0)}},{key:"reachedToEnd",value:function(){return this.iterations>0&&this.offset>=this.iterations*this.duration}},{key:"restart",value:function(){var t=arguments.length>0&&void 0!==arguments[0]&&arguments[0];this.stop(t),this.play(t)}},{key:"pause",value:function(){this._pause()}},{key:"reverse",value:function(){this.direction=-this.direction}}],[{key:"build",value:function(t,n){delete t.animationSettings,t.options=ct(t.options,t.root,"5c7f360c"),t.animations.map((function(n){n.settings=ct(n.s,t.root,"5c7f360c"),delete n.s,t.animationSettings||(t.animationSettings=n.settings)}));var e=t.version;if(!(t=at(t,n)))return null;var r=t.options||{},i=new this(t.animations,t.animationSettings,e);return{el:t.svg,options:r,player:i}}},{key:"push",value:function(t){return this.build(t)}},{key:"init",value:function(){var t=this,n=window.__SVGATOR_PLAYER__&&window.__SVGATOR_PLAYER__["5c7f360c"];Array.isArray(n)&&n.splice(0).forEach((function(n){return t.build(n)}))}}]),t}();function yt(t){return p(t)+""}function gt(t){var n=arguments.length>1&&void 0!==arguments[1]?arguments[1]:" ";return t&&t.length?t.map(yt).join(n):""}function dt(t){if(!t)return"transparent";if(null==t.a||t.a>=1){var n=function(t){return 1===(t=parseInt(t).toString(16)).length?"0"+t:t},e=function(t){return t.charAt(0)===t.charAt(1)},r=n(t.r),i=n(t.g),o=n(t.b);return e(r)&&e(i)&&e(o)&&(r=r.charAt(0),i=i.charAt(0),o=o.charAt(0)),"#"+r+i+o}return"rgba("+t.r+","+t.g+","+t.b+","+t.a+")"}function pt(t){return t?"url(#"+t+")":"none"}!function(){for(var t=0,n=["ms","moz","webkit","o"],e=0;e<n.length&&!window.requestAnimationFrame;++e)window.requestAnimationFrame=window[n[e]+"RequestAnimationFrame"],window.cancelAnimationFrame=window[n[e]+"CancelAnimationFrame"]||window[n[e]+"CancelRequestAnimationFrame"];window.requestAnimationFrame||(window.requestAnimationFrame=function(n){var e=Date.now(),r=Math.max(0,16-(e-t)),i=window.setTimeout((function(){n(e+r)}),r);return t=e+r,i},window.cancelAnimationFrame=window.clearTimeout)}();var mt={f:null,i:function(t,n,e){return 0===t?n:1===t?e:{x:D(t,n.x,e.x),y:D(t,n.y,e.y)}},u:function(t,n){return function(e){var r=n(e);t.setAttribute("rx",yt(r.x)),t.setAttribute("ry",yt(r.y))}}},bt={f:null,i:function(t,n,e){return 0===t?n:1===t?e:{width:D(t,n.width,e.width),height:D(t,n.height,e.height)}},u:function(t,n){return function(e){var r=n(e);t.setAttribute("width",yt(r.width)),t.setAttribute("height",yt(r.height))}}};Object.freeze({M:2,L:2,Z:0,H:1,V:1,C:6,Q:4,T:2,S:4,A:7});var wt={},At=null;function _t(t){var n=function(){if(At)return At;if("object"!==("undefined"==typeof document?"undefined":e(document))||!document.createElementNS)return{};var t=document.createElementNS("http://www.w3.org/2000/svg","svg");return t&&t.style?(t.style.position="absolute",t.style.opacity="0.01",t.style.zIndex="-9999",t.style.left="-9999px",t.style.width="1px",t.style.height="1px",At={svg:t}):{}}().svg;if(!n)return function(t){return null};var r=document.createElementNS(n.namespaceURI,"path");r.setAttributeNS(null,"d",t),r.setAttributeNS(null,"fill","none"),r.setAttributeNS(null,"stroke","none"),n.appendChild(r);var i=r.getTotalLength();return function(t){var n=r.getPointAtLength(i*t);return{x:n.x,y:n.y}}}function xt(t){return wt[t]?wt[t]:wt[t]=_t(t)}function kt(t,n,e,r){if(!t||!r)return!1;var i=["M",t.x,t.y];if(n&&e&&(i.push("C"),i.push(n.x),i.push(n.y),i.push(e.x),i.push(e.y)),n?!e:e){var o=n||e;i.push("Q"),i.push(o.x),i.push(o.y)}return n||e||i.push("L"),i.push(r.x),i.push(r.y),i.join(" ")}function St(t,n,e,r){var i=arguments.length>4&&void 0!==arguments[4]?arguments[4]:1,o=kt(t,n,e,r),u=xt(o);try{return u(i)}catch(t){return null}}function Ot(t,n,e){return t+(n-t)*e}function jt(t,n,e){var r=arguments.length>3&&void 0!==arguments[3]&&arguments[3],i={x:Ot(t.x,n.x,e),y:Ot(t.y,n.y,e)};return r&&(i.a=Mt(t,n)),i}function Mt(t,n){return Math.atan2(n.y-t.y,n.x-t.x)}function Et(t,n,e,r){var i=1-r;return i*i*t+2*i*r*n+r*r*e}function Pt(t,n,e,r){return 2*(1-r)*(n-t)+2*r*(e-n)}function It(t,n,e,r){var i=arguments.length>4&&void 0!==arguments[4]&&arguments[4],o=St(t,n,null,e,r);return o||(o={x:Et(t.x,n.x,e.x,r),y:Et(t.y,n.y,e.y,r)}),i&&(o.a=Rt(t,n,e,r)),o}function Rt(t,n,e,r){return Math.atan2(Pt(t.y,n.y,e.y,r),Pt(t.x,n.x,e.x,r))}function Ft(t,n,e,r,i){var o=i*i;return i*o*(r-t+3*(n-e))+3*o*(t+e-2*n)+3*i*(n-t)+t}function Nt(t,n,e,r,i){var o=1-i;return 3*(o*o*(n-t)+2*o*i*(e-n)+i*i*(r-e))}function Tt(t,n,e,r,i){var o=arguments.length>5&&void 0!==arguments[5]&&arguments[5],u=St(t,n,e,r,i);return u||(u={x:Ft(t.x,n.x,e.x,r.x,i),y:Ft(t.y,n.y,e.y,r.y,i)}),o&&(u.a=qt(t,n,e,r,i)),u}function qt(t,n,e,r,i){return Math.atan2(Nt(t.y,n.y,e.y,r.y,i),Nt(t.x,n.x,e.x,r.x,i))}function Bt(t,n,e){var r=arguments.length>3&&void 0!==arguments[3]&&arguments[3];if(Lt(n)){if(Ct(e))return It(n,e.start,e,t,r)}else if(Lt(e)){if(Vt(n))return It(n,n.end,e,t,r)}else{if(Vt(n))return Ct(e)?Tt(n,n.end,e.start,e,t,r):It(n,n.end,e,t,r);if(Ct(e))return It(n,e.start,e,t,r)}return jt(n,e,t,r)}function Dt(t,n,e){var r=Bt(t,n,e,!0);return r.a=function(t){return arguments.length>1&&void 0!==arguments[1]&&arguments[1]?t+Math.PI:t}(r.a)/b,r}function Lt(t){return!t.type||"corner"===t.type}function Ct(t){return null!=t.start&&!Lt(t)}function Vt(t){return null!=t.end&&!Lt(t)}var Gt=new T;var zt={f:yt,i:B},Yt={f:yt,i:L};function $t(t,n,e){return t.map((function(t){return function(t,n,e){var r=t.v;if(!r||"g"!==r.t||r.s||!r.v||!r.r)return t;var i=e.getElementById(r.r),o=i&&i.querySelectorAll("stop")||[];return r.s=r.v.map((function(t,n){var e=o[n]&&o[n].getAttribute("offset");return{c:t,o:e=p(parseInt(e)/100)}})),delete r.v,t}(t,0,e)}))}var Ut={gt:"gradientTransform",c:{x:"cx",y:"cy"},rd:"r",f:{x:"x1",y:"y1"},to:{x:"x2",y:"y2"}};function Qt(t,n,r,i,o,u,a,l){return $t(t,0,l),n=function(t,n,e){for(var r,i,o,u=t.length-1,a={},l=0;l<=u;l++)(r=t[l]).e&&(r.e=n(r.e)),r.v&&"g"===(i=r.v).t&&i.r&&(o=e.getElementById(i.r))&&(a[i.r]={e:o,s:o.querySelectorAll("stop")});return a}(t,i,l),function(i){var o=r(i,t,Ht);if(!o)return"none";if("c"===o.t)return dt(o.v);if("g"===o.t){if(!n[o.r])return pt(o.r);var u=n[o.r];return function(t,n){for(var e=t.s,r=e.length;r<n.length;r++){var i=e[e.length-1].cloneNode();i.id=Kt(i.id),t.e.appendChild(i),e=t.s=t.e.querySelectorAll("stop")}for(var o=0,u=e.length,a=n.length-1;o<u;o++)e[o].setAttribute("stop-color",dt(n[Math.min(o,a)].c)),e[o].setAttribute("offset",n[Math.min(o,a)].o)}(u,o.s),Object.keys(Ut).forEach((function(t){if(void 0!==o[t])if("object"!==e(Ut[t])){var n,r="gt"===t?(n=o[t],Array.isArray(n)?"matrix("+n.join(" ")+")":""):o[t],i=Ut[t];u.e.setAttribute(i,r)}else Object.keys(Ut[t]).forEach((function(n){if(void 0!==o[t][n]){var e=o[t][n],r=Ut[t][n];u.e.setAttribute(r,e)}}))})),pt(o.r)}return"none"}}function Ht(t,e,r){if(0===t)return e;if(1===t)return r;if(e&&r){var i=e.t;if(i===r.t)switch(e.t){case"c":return{t:i,v:G(t,e.v,r.v)};case"g":if(e.r===r.r){var o={t:i,s:Jt(t,e.s,r.s),r:e.r};return e.gt&&r.gt&&(o.gt=function(t,n,e){var r=n.length;if(r!==e.length)return q(t,n,e);for(var i=new Array(r),o=0;o<r;o++)i[o]=B(t,n[o],e[o]);return i}(t,e.gt,r.gt)),e.c?(o.c=C(t,e.c,r.c),o.rd=D(t,e.rd,r.rd)):e.f&&(o.f=C(t,e.f,r.f),o.to=C(t,e.to,r.to)),o}}if("c"===e.t&&"g"===r.t||"c"===r.t&&"g"===e.t){var u="c"===e.t?e:r,a="g"===e.t?n({},e):n({},r),l=a.s.map((function(t){return{c:u.v,o:t.o}}));return a.s="c"===e.t?Jt(t,l,a.s):Jt(t,a.s,l),a}}return q(t,e,r)}function Jt(t,n,e){if(n.length===e.length)return n.map((function(n,r){return Zt(t,n,e[r])}));for(var r=Math.max(n.length,e.length),i=[],o=0;o<r;o++){var u=Zt(t,n[Math.min(o,n.length-1)],e[Math.min(o,e.length-1)]);i.push(u)}return i}function Zt(t,n,e){return{o:L(t,n.o,e.o||0),c:G(t,n.c,e.c||{})}}function Kt(t){return t.replace(/-fill-([0-9]+)$/,(function(t,n){return"-fill-"+(+n+1)}))}var Wt={fill:Qt,"fill-opacity":Yt,stroke:Qt,"stroke-opacity":Yt,"stroke-width":zt,"stroke-dashoffset":{f:yt,i:B},"stroke-dasharray":{f:function(t){var n=arguments.length>1&&void 0!==arguments[1]?arguments[1]:" ";return t&&t.length>0&&(t=t.map((function(t){return p(t,4)}))),gt(t,n)},i:function(t,n,e){var r,i,o,u=n.length,a=e.length;if(u!==a)if(0===u)n=z(u=a,0);else if(0===a)a=u,e=z(u,0);else{var l=(o=(r=u)*(i=a)/function(t,n){for(var e;n;)e=n,n=t%n,t=e;return t||1}(r,i))<0?-o:o;n=Y(n,Math.floor(l/u)),e=Y(e,Math.floor(l/a)),u=a=l}for(var s=[],f=0;f<u;f++)s.push(p(D(t,n[f],e[f])));return s}},opacity:Yt,transform:function(t,n,r,i){if(!(t=function(t,n){if(!t||"object"!==e(t))return null;var r=!1;for(var i in t)t.hasOwnProperty(i)&&(t[i]&&t[i].length?(t[i].forEach((function(t){t.e&&(t.e=n(t.e))})),r=!0):delete t[i]);return r?t:null}(t,i)))return null;var o=function(e,i,o){var u=arguments.length>3&&void 0!==arguments[3]?arguments[3]:null;return t[e]?r(i,t[e],o):n&&n[e]?n[e]:u};return n&&n.a&&t.o?function(n){var e=r(n,t.o,Dt);return Gt.recomposeSelf(e,o("r",n,B,0)+e.a,o("k",n,C),o("s",n,C),o("t",n,C)).toString()}:function(t){return Gt.recomposeSelf(o("o",t,Bt,null),o("r",t,B,0),o("k",t,C),o("s",t,C),o("t",t,C)).toString()}},r:zt,"#size":bt,"#radius":mt,_:function(t,n){if(Array.isArray(t))for(var e=0;e<t.length;e++)this[t[e]]=n;else this[t]=n}},Xt=function(t){!function(t,n){if("function"!=typeof n&&null!==n)throw new TypeError("Super expression must either be null or a function");t.prototype=Object.create(n&&n.prototype,{constructor:{value:t,writable:!0,configurable:!0}}),n&&l(t,n)}(u,t);var n,e,i=(n=u,e=s(),function(){var t,r=a(n);if(e){var i=a(this).constructor;t=Reflect.construct(r,arguments,i)}else t=r.apply(this,arguments);return c(this,t)});function u(){return r(this,u),i.apply(this,arguments)}return o(u,null,[{key:"build",value:function(t){var n=h(a(u),"build",this).call(this,t,Wt);if(!n)return null;n.el,n.options,function(t,n,e){t.play()}(n.player)}}]),u}(vt);return Xt.init(),Xt}));
(function(s,i,o,w,d,a,b){w[o]=w[o]||{};w[o][s]=w[o][s]||[];w[o][s].push(i);})('5c7f360c',{"root":"eZmJdaz3s5M1","version":"2022-05-04","animations":[{"elements":{"eZmJdaz3s5M3":{"transform":{"data":{"t":{"x":-13285.000005,"y":-8504.69174}},"keys":{"o":[{"t":600,"v":{"x":12999.843745,"y":8199.56,"type":"corner"}},{"t":1100,"v":{"x":13000.000005,"y":7231.159025,"type":"corner"}},{"t":1900,"v":{"x":13000.000005,"y":7231.159025,"type":"corner"}},{"t":2400,"v":{"x":13000.000005,"y":8199.56,"type":"corner"}}],"s":[{"t":1000,"v":{"x":1,"y":1}},{"t":1500,"v":{"x":1,"y":0.1}},{"t":2000,"v":{"x":1,"y":1}}]}}},"eZmJdaz3s5M11":{"transform":{"data":{"t":{"x":-13288.413085,"y":-3035}},"keys":{"o":[{"t":600,"v":{"x":12999.84375,"y":3720.35,"type":"corner"}},{"t":1100,"v":{"x":12999.84375,"y":4743.82202,"type":"corner"}},{"t":1900,"v":{"x":12999.84375,"y":4743.82202,"type":"corner"}},{"t":2400,"v":{"x":12999.84375,"y":3720.35,"type":"corner"}}],"s":[{"t":1000,"v":{"x":1,"y":1}},{"t":1500,"v":{"x":1,"y":0.1}},{"t":2000,"v":{"x":1,"y":1}}]}}},"eZmJdaz3s5M13":{"transform":{"data":{"t":{"x":-12834.1875,"y":-5921.21997}},"keys":{"o":[{"t":0,"v":{"x":13000.000003,"y":5960,"type":"corner"}},{"t":800,"v":{"x":40275.678063,"y":5960,"type":"corner"}}]}}},"eZmJdaz3s5M43":{"transform":{"data":{"t":{"x":-12834.1875,"y":-5921.21997}},"keys":{"o":[{"t":2200,"v":{"x":-14208.206372,"y":5957.78003,"type":"corner"}},{"t":3000,"v":{"x":12999.999998,"y":5957.78003,"type":"corner"}}]}}}},"s":"MADA1ZGM0NmJhZGJlRWSJiYWFiZGIyRGI4YjcH2YjgzN2M3OTc5Nzk3BNUg2YmFkYjJiYmFlYTWNiZGIyYjhiN082YjEgzN2FQNzU2YmIyYmRWhZWJiYWFiZGIyYjhiIN0diYzZiODM3YTc1NEmJhZmIyYjViNTZiODMM3YTc1NmJSTGFhYjVViZGFlYmJiN2FhYmRMYYWU2YjgzYWZhYWI1YPmNhZTc1NmJiY2I5YWIVhZWFkSTZiODM3YTcJ1NmJhZmI5YmM2YjgzRN2FKNzk3OWM2"}],"options":"MADAxMDg4MmY4MDgxNmUU3ZjgxMmY0NzJmNzkW3YzZlNzEyZjhh"},'__SVGATOR_PLAYER__',window,document)
]]></script>
</svg>
