<?xml version="1.0" standalone="no"?>
<!DOCTYPE svg PUBLIC "-//W3C//DTD SVG 20010904//EN"
 "http://www.w3.org/TR/2001/REC-SVG-20010904/DTD/svg10.dtd">
<svg version="1.0" xmlns="http://www.w3.org/2000/svg"
 width="2600.000000pt" height="1192.000000pt" viewBox="0 0 2600.000000 1192.000000"
 preserveAspectRatio="xMidYMid meet">

<g transform="translate(0.000000,1192.000000) scale(0.100000,-0.100000)"
fill="#000000" stroke="none">
<path d="M17990 8479 c-19 -4 -50 -10 -67 -14 -25 -6 -33 -4 -33 6 0 11 -2 11
-8 2 -5 -9 -54 -13 -165 -14 -86 -1 -157 -5 -157 -10 0 -5 9 -9 20 -9 11 0 20
-4 20 -9 0 -11 -148 -14 -164 -3 -16 10 -56 10 -56 0 0 -4 -4 -8 -10 -8 -5 0
-6 7 -3 17 4 10 2 14 -4 10 -6 -4 -63 -7 -127 -8 -64 0 -116 -5 -116 -10 0
-11 -73 -12 -84 -1 -11 10 -50 9 -58 -2 -4 -6 -11 -6 -20 1 -21 17 -469 18
-479 1 -7 -11 -618 -13 -3516 -12 -1929 0 -3521 3 -3537 8 -23 6 -27 9 -15 17
11 7 9 9 -9 9 -13 0 -21 -4 -18 -9 7 -11 -37 -22 -85 -22 -19 1 -43 0 -54 0
-11 0 -32 1 -47 4 -14 2 -32 1 -39 -4 -7 -4 -22 -2 -33 4 -12 6 -29 11 -39 12
-10 0 -22 6 -26 14 -7 11 -29 14 -83 12 -86 -2 -80 -2 -140 2 -32 2 -49 -1
-52 -10 -7 -17 -36 -5 -36 14 0 11 -4 13 -12 5 -9 -7 -42 -7 -104 1 -50 5 -99
7 -108 4 -14 -6 -16 -37 -16 -294 0 -158 3 -433 7 -611 l6 -323 79 3 78 3 0
508 c0 485 1 508 19 526 11 11 16 22 13 26 -4 4 -2 6 3 5 6 -1 15 -2 20 -1 37
4 9114 -1 9132 -5 12 -3 24 -16 26 -27 3 -12 6 -247 7 -522 0 -274 3 -501 5
-503 2 -3 38 -5 80 -6 l75 -1 0 550 c0 303 0 575 0 605 0 65 -15 80 -70 69z
m-9018 -51 c-7 -7 -12 -8 -12 -2 0 14 12 26 19 19 2 -3 -1 -11 -7 -17z m77 13
c8 -5 9 -11 3 -15 -14 -8 -43 4 -36 15 7 11 15 11 33 0z"/>
<path d="M9120 8448 c0 -4 54 -8 121 -8 74 0 118 4 114 10 -7 11 -235 10 -235
-2z"/>
<path d="M9455 8450 c-4 -6 7 -10 25 -10 18 0 29 4 25 10 -3 6 -15 10 -25 10
-10 0 -22 -4 -25 -10z"/>
<path d="M9560 8450 c-25 -4 118 -8 318 -8 240 -1 361 1 357 8 -7 11 -602 11
-675 0z"/>
<path d="M17440 8448 c0 -12 15 -13 98 -9 6 1 12 6 12 11 0 6 -25 10 -55 10
-37 0 -55 -4 -55 -12z"/>
<path d="M13638 8423 c199 -2 525 -2 725 0 199 1 36 2 -363 2 -399 0 -562 -1
-362 -2z"/>
<path d="M14958 8423 c89 -2 235 -2 325 0 89 1 16 3 -163 3 -179 0 -252 -2
-162 -3z"/>
<path d="M13895 6750 c-139 -28 -310 -133 -379 -233 -102 -148 -111 -319 -26
-486 48 -95 166 -186 299 -232 68 -24 77 -23 26 2 -43 21 -32 19 80 -11 74
-20 161 -55 115 -46 -14 2 -41 7 -60 10 l-35 6 30 -15 c17 -8 45 -14 64 -15
19 0 64 -5 100 -11 114 -20 166 -57 177 -125 17 -113 -4 -123 -256 -120 -197
2 -246 10 -234 40 3 8 -10 19 -38 29 -39 15 -71 40 -106 82 -17 19 -38 14 -36
-8 1 -9 -2 -15 -6 -12 -4 2 -33 -32 -64 -78 -31 -45 -71 -102 -88 -126 -22
-31 -32 -56 -32 -85 -1 -40 1 -42 51 -66 29 -14 63 -36 77 -49 28 -27 131 -61
166 -55 14 2 48 -2 75 -10 l50 -14 -40 -2 -40 -2 45 -14 c60 -19 337 -29 419
-15 35 5 99 27 143 48 241 113 351 419 237 663 -33 72 -114 157 -158 166 -14
3 -35 10 -46 15 l-20 10 20 -6 c14 -5 17 -3 9 5 -12 12 -175 71 -187 67 -4 -1
15 -11 43 -22 27 -11 50 -23 50 -28 0 -5 -8 -6 -17 -2 -10 4 -47 16 -83 26
-298 84 -347 103 -380 149 -24 34 -25 61 -3 107 28 60 62 73 189 73 133 0 213
-13 235 -39 19 -23 73 -52 117 -62 27 -6 35 -3 52 19 11 14 29 44 40 66 11 23
40 69 65 104 50 71 55 100 23 138 -59 68 -274 159 -400 169 -44 4 -57 2 -43
-4 16 -8 12 -10 -22 -10 -24 -1 -43 4 -43 9 0 12 -96 12 -155 0z m320 -20 c3
-6 -1 -7 -9 -4 -18 7 -21 14 -7 14 6 0 13 -4 16 -10z m150 -730 c13 -6 15 -9
5 -9 -8 0 -22 4 -30 9 -18 12 -2 12 25 0z m35 -834 c0 -2 -7 -7 -16 -10 -8 -3
-12 -2 -9 4 6 10 25 14 25 6z m-76 -35 c-18 -11 -58 -22 -90 -25 -53 -5 -55
-4 -24 5 19 6 53 17 75 24 58 19 74 18 39 -4z"/>
<path d="M23940 6749 c-21 -6 -22 -7 -5 -9 l20 -1 -20 -9 c-11 -5 -34 -9 -50
-9 -17 -1 -37 -7 -44 -13 -11 -11 -13 -10 -7 0 6 10 2 10 -21 0 -15 -7 -30
-15 -33 -18 -3 -3 -27 -16 -53 -30 -65 -34 -157 -131 -198 -210 -33 -64 -34
-67 -34 -191 l0 -126 43 -85 c29 -60 57 -99 91 -130 50 -45 199 -128 229 -128
9 1 -5 12 -33 25 -61 29 -54 32 14 5 27 -10 86 -28 131 -39 104 -26 135 -43
65 -37 -86 9 -2 -11 97 -23 145 -17 208 -66 208 -161 0 -79 -28 -90 -223 -90
-201 0 -238 6 -278 41 -18 16 -47 39 -66 51 -18 13 -36 31 -39 42 -5 14 -8 15
-14 6 -4 -7 -20 -14 -34 -15 -22 -3 -25 -1 -15 11 14 17 33 19 23 2 -4 -7 -3
-8 4 -4 14 8 16 36 4 36 -21 0 -103 -95 -132 -151 -7 -13 -21 -33 -30 -44 -10
-11 -30 -41 -44 -66 -21 -39 -24 -52 -16 -79 13 -44 28 -60 58 -60 16 0 40
-13 62 -34 32 -32 103 -61 121 -51 11 7 173 -25 184 -37 7 -7 -5 -8 -40 -4
-37 5 -46 4 -33 -4 47 -29 432 -38 498 -11 26 10 16 14 -30 12 -23 -1 -23 0
-5 8 28 13 63 13 67 1 2 -6 34 4 74 24 90 45 183 140 224 228 58 126 58 327
-1 438 -32 60 -96 133 -109 125 -4 -3 -34 8 -67 24 -32 16 -75 32 -96 36 -20
4 -37 11 -37 16 0 5 -7 6 -15 3 -8 -4 -21 -1 -29 5 -7 6 -15 9 -18 6 -2 -3
-43 8 -89 24 -46 16 -113 37 -148 46 -87 22 -158 59 -167 87 -10 29 -6 85 7
120 16 40 72 58 181 58 103 0 216 -16 238 -35 8 -6 44 -29 79 -50 l64 -38 19
24 c10 13 39 58 64 99 25 41 59 96 76 122 28 43 29 48 16 75 -8 15 -20 27 -27
25 -7 -1 -10 1 -7 6 15 25 -169 126 -231 126 -18 0 -28 3 -22 7 16 10 -77 32
-106 25 -17 -4 -24 -3 -20 4 4 6 -4 10 -19 10 -14 0 -26 -4 -26 -8 0 -5 -12
-7 -27 -6 -74 8 -181 10 -203 3z m631 -836 c13 -16 12 -17 -3 -4 -17 13 -22
21 -14 21 2 0 10 -8 17 -17z"/>
<path d="M8395 6676 c-94 -25 -223 -81 -212 -92 3 -3 32 8 64 25 92 46 172 63
308 64 135 1 202 -13 312 -66 121 -58 154 -78 147 -88 -3 -6 -18 -2 -37 11
-60 39 -126 70 -140 65 -7 -3 -24 -1 -38 5 -21 9 -20 10 11 5 l35 -5 -39 15
c-22 9 -42 11 -45 6 -4 -5 -34 -3 -71 4 -36 7 -119 15 -185 18 -66 2 -106 2
-90 0 26 -5 21 -7 -33 -19 -35 -7 -70 -10 -79 -7 -11 4 -14 2 -9 -5 4 -7 2
-12 -6 -12 -29 0 -201 -95 -248 -137 -101 -90 -205 -258 -230 -367 -14 -64
-15 -268 -1 -329 6 -26 25 -80 43 -120 97 -220 280 -387 508 -464 80 -26 351
-26 430 1 59 19 141 63 152 79 3 6 14 12 23 13 37 5 182 154 246 251 84 129
118 244 119 397 0 112 -17 188 -64 292 -59 127 -165 272 -189 257 -5 -3 -7 -2
-4 4 12 19 -96 101 -188 142 -117 53 -165 63 -305 67 -92 2 -151 -1 -185 -10z
m523 -124 c12 -8 22 -16 22 -18 0 -5 -82 35 -90 43 -10 10 45 -10 68 -25z
m-235 -287 c118 -31 195 -94 248 -201 29 -58 31 -69 28 -151 -3 -76 -9 -98
-37 -155 -49 -101 -148 -170 -267 -188 l-60 -9 65 3 c36 2 74 7 85 11 15 5 16
4 5 -3 -63 -40 -282 -42 -357 -3 -24 12 -43 26 -43 31 0 6 -6 10 -14 10 -23 0
-116 107 -142 164 -64 139 -47 257 52 376 34 40 131 106 175 118 53 16 198 14
262 -3z m317 -950 c0 -2 -10 -10 -22 -16 -21 -11 -22 -11 -9 4 13 16 31 23 31
12z m-90 -55 c-77 -59 -254 -96 -409 -86 -87 6 -203 35 -225 57 -15 14 4 11
67 -11 87 -31 185 -42 270 -30 75 11 181 41 229 66 15 8 28 11 28 7 0 -4 5 -2
12 5 7 7 21 12 33 12 19 0 18 -2 -5 -20z"/>
<path d="M8473 5563 c9 -2 25 -2 35 0 9 3 1 5 -18 5 -19 0 -27 -2 -17 -5z"/>
<path d="M12355 6686 c-5 -2 -36 -9 -68 -16 -88 -18 -62 -22 34 -5 98 18 99
18 99 6 0 -4 -28 -11 -62 -14 -35 -4 -74 -9 -88 -12 -14 -4 -46 -8 -72 -9
-102 -7 -265 -132 -389 -297 -91 -122 -146 -302 -135 -444 6 -86 42 -229 71
-285 33 -64 98 -154 154 -213 63 -66 197 -161 217 -153 8 3 13 1 11 -5 -1 -6
8 -15 20 -19 17 -7 21 -6 17 5 -4 10 15 7 73 -11 42 -14 80 -27 82 -30 6 -6
-56 5 -97 18 -18 5 -35 8 -38 6 -2 -3 24 -13 58 -24 51 -15 94 -19 218 -19
139 0 162 3 220 24 81 30 182 92 176 108 -3 8 1 10 11 6 12 -5 14 -3 8 7 -6 9
-4 11 5 5 8 -5 42 23 104 86 77 80 99 110 144 199 65 130 82 199 83 320 0 157
-60 322 -170 471 -65 88 -165 172 -194 164 -16 -5 -18 -4 -8 3 16 12 -3 27
-21 16 -6 -4 -8 -3 -5 3 8 12 -67 49 -163 80 -53 17 -106 25 -180 29 -58 2
-109 2 -115 0z m251 -32 c68 -17 129 -43 121 -50 -3 -3 -15 -1 -26 6 -28 15
-187 50 -228 50 -18 0 -33 5 -33 11 0 13 83 5 166 -17z m-99 -10 c-3 -3 -12
-4 -19 -1 -8 3 -5 6 6 6 11 1 17 -2 13 -5z m-418 -68 c-2 -2 -15 -9 -29 -15
-24 -11 -24 -11 -6 3 16 13 49 24 35 12z m-69 -41 c-7 -8 -18 -15 -24 -15 -6
0 -2 7 8 15 25 19 32 19 16 0z m559 -270 c98 -26 188 -103 241 -205 19 -37 24
-61 24 -135 1 -81 -2 -96 -29 -148 -16 -33 -45 -75 -65 -95 -44 -45 -156 -112
-188 -112 -13 0 -21 -3 -19 -7 3 -5 -52 -8 -121 -8 -114 0 -132 3 -172 24 -57
29 -81 51 -73 64 3 5 1 7 -5 4 -14 -9 -76 76 -108 149 -31 70 -38 178 -15 234
42 103 142 201 238 236 51 18 224 18 292 -1z m217 -1007 c-78 -40 -171 -68
-246 -73 l-75 -5 80 19 c44 11 104 29 134 41 50 19 112 37 136 39 6 0 -8 -9
-29 -21z m-429 -74 c-3 -3 -12 -4 -19 -1 -8 3 -5 6 6 6 11 1 17 -2 13 -5z"/>
<path d="M18660 6680 c99 -8 254 -45 304 -72 11 -7 24 -11 29 -10 4 1 7 -2 7
-8 0 -5 10 -11 23 -11 15 -1 17 -3 5 -6 -9 -2 -41 7 -70 21 -55 26 -126 44
-168 43 -14 -1 -72 1 -130 3 l-105 4 95 6 95 6 -95 1 c-85 1 -188 -12 -135
-16 11 -1 -14 -12 -55 -24 -68 -20 -135 -51 -258 -118 -84 -46 -212 -222 -258
-355 -56 -160 -42 -366 35 -529 52 -109 153 -233 251 -305 146 -108 270 -150
445 -150 175 0 258 28 437 149 100 67 129 102 121 144 -7 40 -43 80 -93 102
-22 10 -50 34 -65 56 -14 22 -32 39 -40 39 -8 0 -15 4 -15 9 0 33 -89 -8 -150
-69 -40 -40 -312 -40 -394 0 -61 29 -131 108 -169 188 -28 60 -32 77 -32 157
0 75 4 97 23 133 33 63 84 114 159 163 66 43 67 44 172 48 58 2 135 -2 172 -9
58 -10 76 -19 134 -67 52 -43 69 -52 76 -42 5 8 9 17 9 20 0 3 16 13 35 22 19
9 35 21 35 26 0 5 24 23 53 40 28 16 65 43 81 60 25 26 28 35 23 67 -9 54
-118 157 -147 139 -5 -3 -20 1 -32 9 -26 18 -17 21 15 5 20 -10 20 -10 7 4
-23 24 -146 82 -225 107 -52 16 -101 23 -190 25 l-120 3 105 -8z m-182 -1471
c40 -11 71 -23 69 -26 -7 -6 -128 27 -157 43 -30 17 -19 15 88 -17z m477 22
c-22 -21 -105 -42 -180 -46 l-80 -4 75 14 c41 8 95 21 120 29 53 17 78 20 65
7z"/>
<path d="M968 6480 l-3 -200 203 0 202 0 0 -560 0 -560 176 0 176 0 -4 560 -3
560 203 0 202 0 0 200 0 200 -575 0 -574 0 -3 -200z"/>
<path d="M2410 5919 l0 -759 505 2 505 3 2 198 3 199 -315 -2 c-173 -2 -323
-2 -332 -1 -16 1 -18 12 -18 86 l0 86 253 -1 252 -1 -1 193 -2 193 -223 0
c-123 0 -236 1 -251 3 l-28 2 0 85 0 84 335 -6 335 -6 0 201 0 200 -510 1
-510 0 0 -760z"/>
<path d="M4101 6518 c-29 -90 -88 -264 -131 -388 -44 -124 -115 -337 -160
-475 -45 -137 -97 -295 -117 -350 -19 -55 -37 -107 -40 -116 -7 -23 40 -29
224 -29 l153 0 5 28 c11 55 70 273 76 284 7 11 459 12 471 0 4 -4 17 -70 29
-147 14 -92 27 -144 37 -152 12 -9 67 -13 200 -13 170 0 183 1 179 18 -26 97
-105 346 -179 562 -159 470 -237 702 -274 823 l-37 117 -192 0 -192 0 -52
-162z m264 -338 c13 -21 96 -297 102 -337 l6 -43 -125 0 c-69 0 -127 2 -130 6
-11 10 89 341 111 368 15 18 27 20 36 6z"/>
<path d="M5030 6480 l0 -200 200 0 200 0 0 -560 0 -560 181 0 181 0 -3 558 -3
557 202 3 202 2 0 200 0 200 -580 0 -580 0 0 -200z"/>
<path d="M6440 5931 c0 -413 -1 -754 -2 -758 -2 -5 76 -9 173 -11 l175 -2 -4
275 c-3 154 -1 280 4 284 5 5 56 6 113 2 l104 -6 64 -185 c53 -153 98 -288
119 -357 2 -10 50 -13 195 -13 l192 0 -5 38 c-3 21 -40 125 -83 232 -87 219
-125 322 -125 338 0 7 13 18 30 27 51 26 99 75 135 137 44 75 60 188 46 323
-11 105 -26 155 -72 231 -35 58 -115 138 -129 129 -5 -3 -11 0 -13 5 -3 6 -4
5 -3 -2 2 -7 9 -12 15 -10 7 1 10 -2 6 -7 -3 -6 -26 0 -55 15 -56 28 -63 37
-22 29 26 -6 26 -6 8 9 -15 12 -43 16 -105 16 -47 1 -238 3 -423 6 l-338 6 0
-751z m749 343 l31 -6 0 -108 c0 -89 -3 -109 -16 -114 -9 -3 -105 -6 -215 -6
l-199 0 0 120 0 120 184 0 c101 0 198 -3 215 -6z"/>
<path d="M10198 6499 c-2 -101 -3 -444 -3 -762 l0 -578 365 3 c201 2 371 7
378 11 9 6 9 12 -4 24 -15 15 -13 18 27 34 60 24 77 23 43 -3 -53 -39 -50 -40
21 -5 112 56 249 187 323 310 179 296 114 717 -151 976 -29 27 -50 41 -58 36
-8 -5 -10 -4 -5 3 8 14 -49 51 -124 82 -30 12 -66 26 -80 32 -14 6 -178 12
-377 16 l-353 5 -2 -184z m667 -230 c52 -15 153 -117 191 -195 26 -52 29 -70
29 -149 -1 -79 -4 -97 -30 -150 -18 -35 -60 -91 -102 -135 l-73 -75 -165 -4
-165 -3 0 149 c0 83 -3 245 -7 361 l-6 212 144 0 c79 0 162 -5 184 -11z"/>
<path d="M15480 5931 c0 -413 -1 -754 -2 -758 -2 -5 76 -9 172 -11 l175 -2 -3
280 -4 280 251 0 251 0 2 165 c1 91 2 179 2 196 l1 32 -245 1 -245 2 -5 60
c-3 32 -3 69 -1 81 l3 23 316 2 316 3 4 195 4 195 -496 3 -496 3 0 -750z"/>
<path d="M17035 6673 l-60 -4 -92 -277 c-50 -152 -159 -477 -241 -722 -83
-245 -152 -459 -154 -475 l-3 -30 185 -3 186 -2 39 161 40 161 229 -1 c126 -1
233 -4 237 -7 5 -3 11 -21 15 -42 10 -58 59 -246 67 -259 10 -16 377 -19 377
-3 0 15 -146 460 -249 755 -105 307 -188 557 -222 672 l-24 83 -135 -2 c-74
-1 -162 -3 -195 -5z m143 -496 c6 -7 29 -65 50 -128 22 -63 47 -131 56 -153
20 -49 21 -82 0 -90 -9 -3 -63 -6 -120 -6 -86 0 -106 3 -111 16 -7 18 50 243
92 362 6 16 20 15 33 -1z"/>
<path d="M18485 6670 c-18 -8 -18 -9 5 -9 14 0 34 4 45 9 18 8 18 9 -5 9 -14
0 -34 -4 -45 -9z"/>
<path d="M19530 5919 l0 -759 510 0 510 0 -2 200 -3 201 -285 -1 c-157 -1
-306 -1 -332 0 l-48 0 0 85 0 85 254 0 255 0 -4 193 -4 192 -226 -3 c-125 -2
-237 -1 -251 2 -23 6 -24 10 -24 86 l0 80 335 0 335 0 0 200 0 200 -510 0
-510 -1 0 -760z"/>
<path d="M20810 6481 l0 -201 200 0 200 0 0 -560 0 -560 176 0 176 0 -4 560
-3 560 203 0 202 0 0 198 0 197 -575 3 -575 4 0 -201z"/>
<path d="M22421 6518 c-29 -90 -81 -244 -116 -343 -126 -361 -335 -998 -329
-1004 3 -3 88 -8 189 -9 l183 -4 12 59 c7 32 20 85 30 118 10 33 24 79 30 103
l11 42 234 0 c214 0 234 -1 239 -17 3 -10 17 -78 30 -152 14 -75 31 -138 38
-142 20 -13 378 -11 378 2 0 5 -20 72 -44 147 -24 75 -69 214 -99 307 -30 94
-97 292 -149 440 -52 149 -118 348 -148 443 l-54 172 -191 0 -192 0 -52 -162z
m263 -337 c13 -20 97 -299 103 -338 l6 -42 -94 -3 c-52 -2 -110 -1 -129 2 -44
6 -44 10 16 191 24 75 44 142 44 149 0 15 29 50 41 50 4 0 10 -4 13 -9z"/>
<path d="M8498 6653 c12 -2 32 -2 45 0 12 2 2 4 -23 4 -25 0 -35 -2 -22 -4z"/>
<path d="M8588 6653 c12 -2 30 -2 40 0 9 3 -1 5 -23 4 -22 0 -30 -2 -17 -4z"/>
<path d="M18345 6615 c-38 -19 -74 -40 -80 -46 -5 -6 14 1 43 15 29 15 58 24
65 20 7 -4 8 -3 4 1 -4 5 7 17 25 27 61 32 13 18 -57 -17z"/>
<path d="M8708 6633 c6 -2 18 -2 25 0 6 3 1 5 -13 5 -14 0 -19 -2 -12 -5z"/>
<path d="M18224 6538 l-19 -23 23 19 c21 18 27 26 19 26 -2 0 -12 -10 -23 -22z"/>
<path d="M13938 6123 c6 -2 18 -2 25 0 6 3 1 5 -13 5 -14 0 -19 -2 -12 -5z"/>
<path d="M13991 6116 c3 -3 32 -11 65 -17 32 -6 64 -14 69 -19 15 -12 92 -23
80 -12 -20 19 -231 67 -214 48z"/>
<path d="M24090 6104 c36 -8 75 -19 87 -25 11 -6 26 -9 31 -5 6 3 23 1 39 -5
16 -6 24 -6 18 0 -13 12 -178 51 -213 50 -15 -1 2 -7 38 -15z"/>
<path d="M24340 6040 c8 -5 22 -9 30 -9 10 0 8 3 -5 9 -27 12 -43 12 -25 0z"/>
<path d="M24517 5959 c7 -7 15 -10 18 -7 3 3 -2 9 -12 12 -14 6 -15 5 -6 -5z"/>
<path d="M23840 5530 c0 -12 28 -21 35 -11 2 5 -4 11 -15 14 -11 3 -20 2 -20
-3z"/>
<path d="M8511 4058 c1 -354 14 -1007 20 -1013 3 -3 2148 -6 4766 -7 l4760 -3
7 605 c4 333 4 613 1 623 -7 15 -18 17 -89 15 l-81 -3 0 -527 c0 -289 -3 -529
-7 -533 -3 -4 -33 -9 -65 -12 -32 -3 -85 -8 -118 -13 -33 -4 -65 -4 -71 1 -6
5 -18 3 -30 -6 -10 -8 -34 -15 -51 -15 -27 0 -33 -4 -34 -22 -1 -21 -2 -21 -6
-3 -8 32 -23 42 -34 22 -7 -12 -15 -15 -26 -8 -12 6 -22 3 -35 -13 l-18 -21
-18 21 c-18 21 -19 21 -30 3 -12 -19 -72 -28 -72 -11 0 5 -105 9 -232 10 -128
1 -272 3 -320 5 -49 2 -88 0 -88 -5 0 -8 -73 -11 -81 -3 -9 8 -6959 11 -6959
3 0 -11 -77 -10 -84 0 -2 4 -31 7 -63 7 -32 -1 -68 2 -80 6 -14 5 -26 3 -33
-7 -15 -17 -36 -18 -46 -2 -5 7 -3 8 7 3 12 -8 12 -6 0 9 -8 9 -17 13 -20 8
-10 -15 -150 -16 -161 -1 -3 4 -43 13 -88 19 -62 8 -87 8 -97 0 -10 -8 -19 -8
-34 1 -15 10 -25 10 -43 2 -39 -19 -57 -23 -63 -13 -4 6 -15 10 -26 10 -10 0
-19 4 -19 10 0 5 -6 7 -13 4 -7 -2 -21 4 -31 14 -13 15 -18 43 -21 123 -6 173
-7 888 -1 898 4 5 4 16 0 24 -4 11 -25 15 -90 16 l-84 2 1 -223z m6401 -925
c-860 -2 -2264 -2 -3120 0 -856 1 -153 2 1563 2 1716 0 2417 -1 1557 -2z
m2271 0 c-13 -2 -33 -2 -45 0 -13 2 -3 4 22 4 25 0 35 -2 23 -4z"/>
</g>
</svg>
